<svg width="45" height="44" viewBox="0 0 45 44" fill="none" xmlns="http://www.w3.org/2000/svg">
<path d="M14.7768 40.197H29.3939C36.739 40.197 38.0545 37.2553 38.4382 33.6741L39.8086 19.057C40.3019 14.5988 39.0229 10.9628 31.221 10.9628H12.9497C5.14778 10.9628 3.86878 14.5988 4.36211 19.057L5.73246 33.6741C6.11616 37.2553 7.4317 40.197 14.7768 40.197Z" stroke="#ED881E" stroke-width="2.74071" stroke-miterlimit="10" stroke-linecap="round" stroke-linejoin="round"/>
<path d="M14.7766 10.9628V9.50111C14.7766 6.26708 14.7766 3.65427 20.6235 3.65427H23.5469C29.3937 3.65427 29.3937 6.26708 29.3937 9.50111V10.9628" stroke="#ED881E" stroke-width="2.74071" stroke-miterlimit="10" stroke-linecap="round" stroke-linejoin="round"/>
<path d="M25.7395 23.7528V25.5799C25.7395 25.5982 25.7395 25.5982 25.7395 25.6165C25.7395 27.608 25.7212 29.2342 22.0852 29.2342C18.4675 29.2342 18.4309 27.6263 18.4309 25.6347V23.7528C18.4309 21.9256 18.4309 21.9256 20.258 21.9256H23.9123C25.7395 21.9256 25.7395 21.9256 25.7395 23.7528Z" stroke="#ED881E" stroke-width="2.74071" stroke-miterlimit="10" stroke-linecap="round" stroke-linejoin="round"/>
<path d="M39.7171 20.0985C35.4964 23.1681 30.6728 24.9952 25.7395 25.6165" stroke="#ED881E" stroke-width="2.74071" stroke-miterlimit="10" stroke-linecap="round" stroke-linejoin="round"/>
<path d="M4.9469 20.5919C9.05796 23.4056 13.6989 25.1049 18.4312 25.6347" stroke="#ED881E" stroke-width="2.74071" stroke-miterlimit="10" stroke-linecap="round" stroke-linejoin="round"/>
</svg>
