<svg width="45" height="44" viewBox="0 0 45 44" fill="none" xmlns="http://www.w3.org/2000/svg">
<path d="M23.912 40.197H9.29489C5.64061 40.197 3.81348 38.3699 3.81348 34.7156V20.0985C3.81348 16.4442 5.64061 14.6171 9.29489 14.6171H18.4306V34.7156C18.4306 38.3699 20.2577 40.197 23.912 40.197Z" stroke="#ED881E" stroke-width="2.74071" stroke-miterlimit="10" stroke-linecap="round" stroke-linejoin="round"/>
<path d="M18.6316 7.30855C18.4854 7.85669 18.4306 8.45964 18.4306 9.13569V14.6171H9.29492V10.9628C9.29492 8.95297 10.9393 7.30855 12.9492 7.30855H18.6316Z" stroke="#ED881E" stroke-width="2.74071" stroke-miterlimit="10" stroke-linecap="round" stroke-linejoin="round"/>
<path d="M25.7393 14.6171V23.7528" stroke="#ED881E" stroke-width="2.74071" stroke-miterlimit="10" stroke-linecap="round" stroke-linejoin="round"/>
<path d="M33.0479 14.6171V23.7528" stroke="#ED881E" stroke-width="2.74071" stroke-miterlimit="10" stroke-linecap="round" stroke-linejoin="round"/>
<path d="M31.2207 31.0613H27.5664C26.5615 31.0613 25.7393 31.8835 25.7393 32.8885V40.197H33.0478V32.8885C33.0478 31.8835 32.2256 31.0613 31.2207 31.0613Z" stroke="#ED881E" stroke-width="2.74071" stroke-miterlimit="10" stroke-linecap="round" stroke-linejoin="round"/>
<path d="M11.1221 23.7528V31.0613" stroke="#ED881E" stroke-width="2.74071" stroke-miterlimit="10" stroke-linecap="round" stroke-linejoin="round"/>
<path d="M18.4307 34.7156V9.13569C18.4307 5.48141 20.2578 3.65427 23.9121 3.65427H34.8749C38.5292 3.65427 40.3563 5.48141 40.3563 9.13569V34.7156C40.3563 38.3699 38.5292 40.197 34.8749 40.197H23.9121C20.2578 40.197 18.4307 38.3699 18.4307 34.7156Z" stroke="#ED881E" stroke-width="2.74071" stroke-miterlimit="10" stroke-linecap="round" stroke-linejoin="round"/>
</svg>
