<svg width="45" height="44" viewBox="0 0 45 44" fill="none" xmlns="http://www.w3.org/2000/svg">
<path d="M16.8963 19.861C16.7136 19.8427 16.4943 19.8427 16.2933 19.861C11.9447 19.7148 8.49146 16.1519 8.49146 11.7668C8.49146 7.29028 12.1092 3.65427 16.6039 3.65427C21.0804 3.65427 24.7164 7.29028 24.7164 11.7668C24.6982 16.1519 21.2449 19.7148 16.8963 19.861Z" stroke="#2E367E" stroke-width="2.74071" stroke-linecap="round" stroke-linejoin="round"/>
<path d="M30.1428 7.30855C33.6874 7.30855 36.5378 10.1772 36.5378 13.7035C36.5378 17.1568 33.7971 19.9706 30.3803 20.0985C30.2342 20.0802 30.0697 20.0802 29.9053 20.0985" stroke="#2E367E" stroke-width="2.74071" stroke-linecap="round" stroke-linejoin="round"/>
<path d="M7.76035 26.6031C3.33867 29.5631 3.33867 34.3867 7.76035 37.3284C12.785 40.6903 21.0254 40.6903 26.05 37.3284C30.4717 34.3685 30.4717 29.5448 26.05 26.6031C21.0436 23.2595 12.8032 23.2595 7.76035 26.6031Z" stroke="#2E367E" stroke-width="2.74071" stroke-linecap="round" stroke-linejoin="round"/>
<path d="M33.6694 36.5427C34.985 36.2687 36.2274 35.7388 37.2506 34.9531C40.101 32.8154 40.101 29.289 37.2506 27.1513C36.2457 26.3839 35.0215 25.8723 33.7242 25.5799" stroke="#2E367E" stroke-width="2.74071" stroke-linecap="round" stroke-linejoin="round"/>
</svg>
