<svg width="25" height="25" viewBox="0 0 25 25" fill="none" xmlns="http://www.w3.org/2000/svg">
<path d="M13.4434 22.2144H5.44336C3.44336 22.2144 2.44336 21.2144 2.44336 19.2144V11.2144C2.44336 9.21436 3.44336 8.21436 5.44336 8.21436H10.4434V19.2144C10.4434 21.2144 11.4434 22.2144 13.4434 22.2144Z" stroke="#ED881E" stroke-width="1.5" stroke-miterlimit="10" stroke-linecap="round" stroke-linejoin="round"/>
<path d="M10.5533 4.21436C10.4733 4.51436 10.4434 4.84436 10.4434 5.21436V8.21436H5.44336V6.21436C5.44336 5.11436 6.34336 4.21436 7.44336 4.21436H10.5533Z" stroke="#ED881E" stroke-width="1.5" stroke-miterlimit="10" stroke-linecap="round" stroke-linejoin="round"/>
<path d="M14.4434 8.21436V13.2144" stroke="#ED881E" stroke-width="1.5" stroke-miterlimit="10" stroke-linecap="round" stroke-linejoin="round"/>
<path d="M18.4434 8.21436V13.2144" stroke="#ED881E" stroke-width="1.5" stroke-miterlimit="10" stroke-linecap="round" stroke-linejoin="round"/>
<path d="M17.4434 17.2144H15.4434C14.8934 17.2144 14.4434 17.6644 14.4434 18.2144V22.2144H18.4434V18.2144C18.4434 17.6644 17.9934 17.2144 17.4434 17.2144Z" stroke="#ED881E" stroke-width="1.5" stroke-miterlimit="10" stroke-linecap="round" stroke-linejoin="round"/>
<path d="M6.44336 13.2144V17.2144" stroke="#ED881E" stroke-width="1.5" stroke-miterlimit="10" stroke-linecap="round" stroke-linejoin="round"/>
<path d="M10.4434 19.2144V5.21436C10.4434 3.21436 11.4434 2.21436 13.4434 2.21436H19.4434C21.4434 2.21436 22.4434 3.21436 22.4434 5.21436V19.2144C22.4434 21.2144 21.4434 22.2144 19.4434 22.2144H13.4434C11.4434 22.2144 10.4434 21.2144 10.4434 19.2144Z" stroke="#ED881E" stroke-width="1.5" stroke-miterlimit="10" stroke-linecap="round" stroke-linejoin="round"/>
</svg>
