<svg width="25" height="25" viewBox="0 0 25 25" fill="none" xmlns="http://www.w3.org/2000/svg">
<path d="M22.4134 18.4643C22.4134 18.8243 22.3334 19.1943 22.1634 19.5543C21.9934 19.9143 21.7734 20.2543 21.4834 20.5743C20.9934 21.1143 20.4534 21.5043 19.8434 21.7543C19.2434 22.0043 18.5934 22.1343 17.8934 22.1343C16.8734 22.1343 15.7834 21.8943 14.6334 21.4043C13.4834 20.9143 12.3334 20.2543 11.1934 19.4243C10.0434 18.5843 8.95336 17.6543 7.91336 16.6243C6.88336 15.5843 5.95336 14.4943 5.12336 13.3543C4.30336 12.2143 3.64336 11.0743 3.16336 9.94428C2.68336 8.80428 2.44336 7.71428 2.44336 6.67428C2.44336 5.99428 2.56336 5.34428 2.80336 4.74428C3.04336 4.13428 3.42336 3.57428 3.95336 3.07428C4.59336 2.44428 5.29336 2.13428 6.03336 2.13428C6.31336 2.13428 6.59336 2.19428 6.84336 2.31428C7.10336 2.43428 7.33336 2.61428 7.51336 2.87428L9.83336 6.14428C10.0134 6.39428 10.1434 6.62428 10.2334 6.84428C10.3234 7.05428 10.3734 7.26428 10.3734 7.45428C10.3734 7.69428 10.3034 7.93428 10.1634 8.16428C10.0334 8.39428 9.84336 8.63428 9.60336 8.87428L8.84336 9.66428C8.73336 9.77428 8.68336 9.90428 8.68336 10.0643C8.68336 10.1443 8.69336 10.2143 8.71336 10.2943C8.74336 10.3743 8.77336 10.4343 8.79336 10.4943C8.97336 10.8243 9.28336 11.2543 9.72336 11.7743C10.1734 12.2943 10.6534 12.8243 11.1734 13.3543C11.7134 13.8843 12.2334 14.3743 12.7634 14.8243C13.2834 15.2643 13.7134 15.5643 14.0534 15.7443C14.1034 15.7643 14.1634 15.7943 14.2334 15.8243C14.3134 15.8543 14.3934 15.8643 14.4834 15.8643C14.6534 15.8643 14.7834 15.8043 14.8934 15.6943L15.6534 14.9443C15.9034 14.6943 16.1434 14.5043 16.3734 14.3843C16.6034 14.2443 16.8334 14.1743 17.0834 14.1743C17.2734 14.1743 17.4734 14.2143 17.6934 14.3043C17.9134 14.3943 18.1434 14.5243 18.3934 14.6943L21.7034 17.0443C21.9634 17.2243 22.1434 17.4343 22.2534 17.6843C22.3534 17.9343 22.4134 18.1843 22.4134 18.4643Z" stroke="#ED881E" stroke-width="1.5" stroke-miterlimit="10"/>
<path d="M18.9434 9.13428C18.9434 8.53428 18.4734 7.61428 17.7734 6.86428C17.1334 6.17428 16.2834 5.63428 15.4434 5.63428" stroke="#ED881E" stroke-width="1.5" stroke-linecap="round" stroke-linejoin="round"/>
<path d="M22.4434 9.13428C22.4434 5.26428 19.3134 2.13428 15.4434 2.13428" stroke="#ED881E" stroke-width="1.5" stroke-linecap="round" stroke-linejoin="round"/>
</svg>
