<svg width="25" height="25" viewBox="0 0 25 25" fill="none" xmlns="http://www.w3.org/2000/svg">
<path d="M15.8333 5.50468L17.2433 8.32467C17.4333 8.71467 17.9433 9.08467 18.3733 9.16467L20.9233 9.58466C22.5533 9.85466 22.9333 11.0347 21.7633 12.2147L19.7733 14.2047C19.4433 14.5347 19.2533 15.1847 19.3633 15.6547L19.9333 18.1147C20.3833 20.0547 19.3433 20.8147 17.6333 19.7947L15.2433 18.3747C14.8133 18.1147 14.0933 18.1147 13.6633 18.3747L11.2733 19.7947C9.5633 20.8047 8.52331 20.0547 8.97331 18.1147L9.54332 15.6547C9.65332 15.1947 9.46331 14.5447 9.13331 14.2047L7.14332 12.2147C5.97332 11.0447 6.35332 9.86466 7.98332 9.58466L10.5333 9.16467C10.9633 9.09467 11.4733 8.71467 11.6633 8.32467L13.0733 5.50468C13.8233 3.97468 15.0633 3.97468 15.8333 5.50468Z" stroke="#ED881E" stroke-width="1.5" stroke-linecap="round" stroke-linejoin="round"/>
<path d="M8.44336 5.29468H2.44336" stroke="#ED881E" stroke-width="1.5" stroke-linecap="round" stroke-linejoin="round"/>
<path d="M5.44336 19.2947H2.44336" stroke="#ED881E" stroke-width="1.5" stroke-linecap="round" stroke-linejoin="round"/>
<path d="M3.44336 12.2947H2.44336" stroke="#ED881E" stroke-width="1.5" stroke-linecap="round" stroke-linejoin="round"/>
</svg>
