<svg width="33" height="33" viewBox="0 0 33 33" fill="none" xmlns="http://www.w3.org/2000/svg">
<rect x="0.932617" y="0.29541" width="32.0225" height="32.0225" rx="5" fill="#BB275B"/>
<path d="M21.7332 6.78369H11.7992C9.0548 6.78369 6.82214 9.01701 6.82214 11.7622V20.853C6.82214 23.5983 9.0548 25.8316 11.7992 25.8316H21.7332C24.4776 25.8316 26.7103 23.5983 26.7103 20.853V11.7622C26.7103 9.01701 24.4776 6.78369 21.7332 6.78369ZM8.5779 11.7622C8.5779 9.98572 10.0232 8.53997 11.7992 8.53997H21.7332C23.5092 8.53997 24.9545 9.98572 24.9545 11.7622V20.853C24.9545 22.6296 23.5092 24.0753 21.7332 24.0753H11.7992C10.0232 24.0753 8.5779 22.6296 8.5779 20.853V11.7622Z" fill="white"/>
<path d="M16.7663 20.9376C19.3184 20.9376 21.3958 18.8606 21.3958 16.3067C21.3958 13.7527 19.3195 11.6758 16.7663 11.6758C14.213 11.6758 12.1367 13.7527 12.1367 16.3067C12.1367 18.8606 14.213 20.9376 16.7663 20.9376ZM16.7663 13.4332C18.3511 13.4332 19.64 14.7225 19.64 16.3078C19.64 17.8931 18.3511 19.1824 16.7663 19.1824C15.1815 19.1824 13.8925 17.8931 13.8925 16.3078C13.8925 14.7225 15.1815 13.4332 16.7663 13.4332Z" fill="white"/>
<path d="M21.8241 12.4237C22.5114 12.4237 23.0715 11.8645 23.0715 11.176C23.0715 10.4874 22.5125 9.92822 21.8241 9.92822C21.1358 9.92822 20.5768 10.4874 20.5768 11.176C20.5768 11.8645 21.1358 12.4237 21.8241 12.4237Z" fill="white"/>
</svg>
