<svg width="33" height="33" viewBox="0 0 33 33" fill="none" xmlns="http://www.w3.org/2000/svg">
<rect x="0.887695" y="0.29541" width="32.0225" height="32.0225" rx="5" fill="#BB275B"/>
<path d="M8.17083 10.9235C7.74792 10.5309 7.5376 10.0448 7.5376 9.46652C7.5376 8.88822 7.74904 8.38079 8.17083 7.98701C8.59374 7.59435 9.13813 7.39746 9.80512 7.39746C10.4721 7.39746 10.9951 7.59435 11.4169 7.98701C11.8398 8.37967 12.0501 8.87359 12.0501 9.46652C12.0501 10.0594 11.8387 10.5309 11.4169 10.9235C10.994 11.3162 10.4575 11.5131 9.80512 11.5131C9.15275 11.5131 8.59374 11.3162 8.17083 10.9235ZM11.6947 13.176V25.2145H7.89189V13.176H11.6947Z" fill="#FEFFFC"/>
<path d="M24.3536 14.3657C25.1825 15.2658 25.5964 16.5012 25.5964 18.0741V25.0024H21.9848V18.5624C21.9848 17.7692 21.779 17.1526 21.3685 16.7138C20.9579 16.275 20.4045 16.0545 19.7117 16.0545C19.0188 16.0545 18.4654 16.2739 18.0549 16.7138C17.6443 17.1526 17.4385 17.7692 17.4385 18.5624V25.0024H13.8055V13.1428H17.4385V14.7156C17.8063 14.1913 18.3024 13.7773 18.9255 13.4724C19.5486 13.1675 20.2493 13.0156 21.0288 13.0156C22.4167 13.0156 23.5257 13.4657 24.3536 14.3646V14.3657Z" fill="#FEFFFC"/>
</svg>
