<svg width="33" height="33" viewBox="0 0 33 33" fill="none" xmlns="http://www.w3.org/2000/svg">
<rect x="0.865234" y="0.29541" width="32.0225" height="32.0225" rx="5" fill="#BB275B"/>
<path d="M19.5482 21.0031C15.4394 21.0031 12.0966 17.6582 12.0955 13.5482C12.0966 12.5064 12.9447 11.6592 13.9839 11.6592C14.0908 11.6592 14.1965 11.6682 14.2977 11.6862C14.5204 11.7233 14.7319 11.7987 14.9265 11.9123C14.9546 11.9292 14.9737 11.9562 14.9782 11.9877L15.4124 14.7251C15.418 14.7566 15.4079 14.7892 15.3865 14.8128C15.147 15.0784 14.841 15.2696 14.5002 15.3652L14.336 15.4114L14.3979 15.57C14.958 16.9966 16.0985 18.1364 17.5258 18.6989L17.6844 18.7619L17.7305 18.5977C17.8261 18.2568 18.0174 17.9507 18.2828 17.7111C18.3019 17.6931 18.3278 17.6841 18.3537 17.6841C18.3593 17.6841 18.3649 17.6841 18.3717 17.6852L21.1082 18.1195C21.1408 18.1251 21.1678 18.1431 21.1847 18.1712C21.2972 18.3659 21.3725 18.5785 21.4108 18.8013C21.4288 18.9003 21.4366 19.0049 21.4366 19.1141C21.4366 20.1548 20.5897 21.002 19.5482 21.0031Z" fill="#FDFDFD"/>
<path d="M26.834 15.4045C26.6124 12.9 25.4651 10.5767 23.6037 8.86317C21.7309 7.13952 19.3014 6.18994 16.7606 6.18994C11.184 6.18994 6.64669 10.7286 6.64669 16.3068C6.64669 18.179 7.16295 20.0028 8.14037 21.5914L5.96057 26.4181L12.9397 25.6744C14.1534 26.1717 15.4378 26.4237 16.7594 26.4237C17.107 26.4237 17.4636 26.4057 17.8212 26.3686C18.1362 26.3348 18.4545 26.2853 18.7672 26.2223C23.4372 25.2783 26.8464 21.1324 26.8734 16.3608V16.3068C26.8734 16.003 26.8599 15.6993 26.8329 15.4056L26.834 15.4045ZM13.2086 23.5558L9.34725 23.9676L10.5001 21.4125L10.2696 21.1031C10.2527 21.0806 10.2358 21.0581 10.2167 21.0322C9.21565 19.6495 8.687 18.0158 8.687 16.3079C8.687 11.8548 12.3088 8.232 16.7606 8.232C20.9312 8.232 24.4664 11.4869 24.8072 15.6419C24.8252 15.8647 24.8353 16.0885 24.8353 16.3091C24.8353 16.3721 24.8341 16.434 24.833 16.5003C24.7475 20.2255 22.146 23.3893 18.5062 24.1949C18.2284 24.2568 17.9438 24.304 17.6604 24.3344C17.3657 24.3681 17.0631 24.385 16.7628 24.385C15.6932 24.385 14.6539 24.178 13.672 23.7685C13.5629 23.7246 13.456 23.6773 13.3559 23.6289L13.2097 23.5581L13.2086 23.5558Z" fill="#FDFDFD"/>
</svg>
