<svg width="33" height="33" viewBox="0 0 33 33" fill="none" xmlns="http://www.w3.org/2000/svg">
<rect x="0.910156" y="0.29541" width="32.0225" height="32.0225" rx="5" fill="#BB275B"/>
<path d="M26.7454 12.9887C26.6194 11.7724 26.3484 10.4279 25.3507 9.72139C24.578 9.17347 23.5623 9.15321 22.6141 9.15433C20.6098 9.15433 18.6044 9.15771 16.6 9.15884C14.6722 9.16109 12.7443 9.16221 10.8165 9.16446C10.0111 9.16446 9.2283 9.10258 8.48033 9.45136C7.83809 9.75064 7.33532 10.3199 7.03275 10.9534C6.61322 11.8343 6.52549 12.8323 6.47487 13.8066C6.38152 15.5809 6.39164 17.3597 6.50299 19.1328C6.5851 20.4267 6.79318 21.8567 7.7931 22.6814C8.67941 23.4116 9.93015 23.4476 11.0797 23.4487C14.7284 23.4521 18.3783 23.4554 22.0281 23.4577C22.496 23.4588 22.9842 23.4498 23.4611 23.3981C24.3991 23.2968 25.2933 23.0279 25.8962 22.3326C26.5047 21.6317 26.6611 20.6562 26.7533 19.7325C26.9782 17.4913 26.976 15.2287 26.7454 12.9887ZM14.49 19.4479V13.1642L19.9293 16.3055L14.49 19.4479Z" fill="white"/>
</svg>
