<svg width="55" height="56" viewBox="0 0 55 56" fill="none" xmlns="http://www.w3.org/2000/svg">
<path d="M8.83224 40.7177C8.76014 41.2852 8.68803 41.8365 8.61825 42.3691C8.54382 42.9227 8.06932 43.3251 7.52739 43.3251C7.47855 43.3251 7.4297 43.3227 7.38086 43.3158C6.77845 43.2344 6.35277 42.6808 6.43422 42.0784C6.504 41.5504 6.5761 41.0038 6.64589 40.4432C6.72032 39.8385 7.2739 39.4151 7.87863 39.4872C8.48337 39.564 8.91137 40.1152 8.83462 40.72L8.83224 40.7177ZM8.32053 18.5814C8.36705 18.5814 8.41356 18.5791 8.46009 18.5721C9.06482 18.4954 9.49283 17.9441 9.41607 17.3394C9.34397 16.7672 9.26721 16.2136 9.18813 15.6786C9.09974 15.0762 8.54386 14.6552 7.93674 14.7482C7.33433 14.8366 6.918 15.3971 7.00636 15.9996C7.08312 16.5206 7.15755 17.0602 7.22732 17.6161C7.29711 18.1744 7.77395 18.5814 8.32053 18.5814ZM8.87178 24.6454C8.2624 24.6454 7.76925 25.1595 7.76925 25.7712C7.76925 26.2875 7.76227 26.8155 7.74832 27.3552C7.73204 27.9646 8.21351 28.4693 8.82292 28.4856H8.85083C9.44627 28.4856 9.93704 28.0111 9.95335 27.411C9.96731 26.8527 9.97429 26.3061 9.97429 25.7712V25.7293C9.97429 25.1199 9.48119 24.6477 8.87176 24.6477L8.87178 24.6454ZM8.77176 29.5904C8.15774 29.5695 7.64137 30.0161 7.60183 30.6232C7.56927 31.1651 7.52973 31.7117 7.48786 32.2606C7.44134 32.8677 7.8949 33.398 8.50196 33.4446C8.52987 33.4469 8.56011 33.4469 8.58802 33.4469C9.1602 33.4469 9.64166 33.0073 9.6859 32.4281C9.72777 31.8699 9.76731 31.3117 9.8022 30.7581C9.83941 30.151 9.37655 29.6277 8.76946 29.5882L8.77176 29.5904ZM8.57638 19.6703C7.96933 19.7191 7.51578 20.2495 7.5646 20.8589C7.60647 21.3915 7.64368 21.9335 7.67392 22.4847C7.70648 23.0709 8.19261 23.5268 8.77412 23.5268C8.79506 23.5268 8.81599 23.5268 8.83693 23.5244C9.44398 23.4919 9.91153 22.9709 9.87663 22.3615C9.84407 21.7916 9.80685 21.2334 9.76266 20.6821C9.71381 20.0751 9.18349 19.6191 8.57409 19.6704L8.57638 19.6703ZM8.40659 34.5445C7.79953 34.4957 7.25988 34.9283 7.19944 35.5331C7.14594 36.0843 7.08779 36.631 7.02964 37.1705C6.96451 37.7753 7.39947 38.3196 8.00653 38.387C8.0484 38.3917 8.08794 38.394 8.12748 38.394C8.68106 38.394 9.16022 37.9753 9.22298 37.4102C9.28345 36.8636 9.33927 36.31 9.3951 35.7517C9.45557 35.1447 9.01136 34.605 8.40659 34.5445ZM54.544 14.93V45.044C54.544 46.6443 53.7997 48.9306 52.4158 50.0169C50.4504 51.5497 46.9708 53.3756 41.5465 53.3756C36.1201 53.3756 32.6405 51.5497 30.6797 50.0169C29.6284 49.1912 28.9166 47.5863 28.6608 46.1465H20.6526C20.327 47.1955 19.5431 48.1399 18.4197 48.9097V51.0682C18.4197 53.671 15.0238 55.7109 10.6926 55.7109C6.28728 55.7109 2.96374 53.7152 2.96374 51.0682V48.9097C1.51699 47.9189 0.637816 46.6396 0.570352 45.2185V45.2045C0.568026 45.151 0.556396 45.0975 0.556396 45.044C0.556396 44.9975 0.57733 44.958 0.581982 44.9114C0.586634 44.8672 0.57733 44.823 0.58896 44.7765C0.612219 44.6812 2.9661 35.1518 2.9661 25.7711C2.9661 18.6442 1.49374 11.4501 0.865782 8.37996C0.78205 7.97524 0.714593 7.63333 0.663426 7.32168C0.600624 7.05187 0.558759 6.77972 0.558759 6.49829C0.558759 4.81199 1.73572 3.21406 3.78952 2.1185C5.65726 1.12297 8.10882 0.576416 10.6979 0.576416C15.8289 0.576416 19.9457 2.70001 20.6996 5.55398C22.6789 5.9052 28.2218 6.78673 32.9246 6.59833C36.0322 6.47505 38.1464 6.15872 40.0092 5.8773C41.7328 5.61913 43.2191 5.39351 45.0147 5.39351C50.2713 5.39351 54.5489 9.67094 54.5489 14.9278L54.544 14.93ZM16.0098 4.0887C16.0098 6.09136 13.7234 7.60087 10.6927 7.60087C10.5066 7.60087 10.3322 7.58226 10.1507 7.57063V10.199C10.3298 10.2036 10.5089 10.2129 10.6927 10.2129C15.0562 10.2129 18.1822 8.50801 18.5799 6.84963C18.5846 6.82405 18.5892 6.80311 18.5939 6.77753C18.6125 6.68449 18.6265 6.58913 18.6265 6.49842C18.6265 5.53082 17.6356 4.50504 15.9679 3.77705C15.9819 3.88172 16.0121 3.98174 16.0121 4.09106L16.0098 4.0887ZM7.44077 9.871C7.45473 9.87333 7.46636 9.87798 7.48264 9.88031C7.6315 9.91287 7.78966 9.94078 7.9455 9.96637V6.30766C7.9455 6.26114 7.96644 6.2216 7.97109 6.1774C7.97574 6.13321 7.96644 6.09134 7.97574 6.04482C7.98272 6.01458 8.00365 5.99365 8.01296 5.96574C8.03622 5.89364 8.06878 5.83084 8.10832 5.76571C8.14321 5.70291 8.1781 5.64476 8.22462 5.59359C8.26881 5.54242 8.31999 5.50055 8.37348 5.45868C8.43163 5.41217 8.48746 5.3703 8.55491 5.33541C8.61306 5.30517 8.67353 5.28889 8.73633 5.27029C8.81309 5.24703 8.88519 5.22842 8.9666 5.22377C8.99451 5.22144 9.0201 5.20748 9.04801 5.20748C9.09221 5.20748 9.13174 5.22842 9.17362 5.23307C9.22014 5.23772 9.26433 5.22842 9.31085 5.23772C9.73417 5.34239 10.1994 5.39588 10.6925 5.39588C12.623 5.39588 13.8046 4.54922 13.8046 4.0887C13.8046 3.62816 12.623 2.78152 10.6925 2.78152C8.49211 2.78152 6.35452 3.24904 4.82405 4.0631C3.51455 4.76322 2.76095 5.64942 2.76095 6.49603C2.76095 6.58674 2.77491 6.67978 2.79119 6.77049C2.79584 6.7984 2.8005 6.82399 2.80747 6.85422C3.10055 8.05905 4.83806 9.28715 7.44313 9.86866L7.44077 9.871ZM16.2117 50.0332C14.6324 50.624 12.7437 50.9682 10.6899 50.9682C8.63607 50.9682 6.74738 50.624 5.16576 50.0332V51.0706C5.16576 52.1986 7.57779 53.5082 10.6899 53.5082C13.7997 53.5082 16.2117 52.1987 16.2117 51.0706V50.0332ZM18.6097 45.137C18.2724 43.7461 16.2117 34.84 16.2117 25.7731C16.2117 20.0397 17.0886 14.5037 17.8026 10.7518C15.9861 11.7892 13.488 12.4196 10.6901 12.4196C10.1365 12.4196 9.60152 12.387 9.07354 12.3405C9.06424 12.3405 9.05494 12.3451 9.04563 12.3451C9.02005 12.3451 8.99911 12.3312 8.97353 12.3312C8.85723 12.3196 8.73861 12.3149 8.62463 12.3009C8.62929 12.3265 8.63394 12.3498 8.63859 12.3777C8.75024 12.9755 8.35482 13.5523 7.75471 13.664C7.68726 13.6779 7.61981 13.6826 7.55236 13.6826C7.03134 13.6826 6.5685 13.3128 6.46847 12.7825C6.40799 12.4568 6.34752 12.1452 6.29169 11.8474C5.27991 11.5706 4.36346 11.2008 3.5773 10.7519C4.27974 14.4874 5.16594 20.1254 5.16594 25.7732C5.16594 34.8401 3.10285 43.7437 2.76791 45.1371C2.83536 46.2303 4.14255 47.3863 6.25454 48.091C5.87773 47.8677 5.65212 47.4351 5.72189 46.9769L5.97077 45.3441C6.06148 44.7417 6.61736 44.3323 7.22448 44.416C7.82689 44.5044 8.24323 45.0673 8.15254 45.6697L7.90133 47.3142C7.81527 47.8584 7.34775 48.2492 6.8128 48.2492C6.78722 48.2492 6.7593 48.2445 6.73139 48.2445C7.86881 48.5678 9.20618 48.7655 10.6878 48.7655C15.2816 48.7655 18.5007 46.8722 18.6078 45.1394L18.6097 45.137ZM52.3363 20.1539C51.0826 21.6984 49.3498 23.1358 47.3146 24.2871V26.9759C47.3146 27.5853 46.8215 28.0785 46.212 28.0785C45.6027 28.0785 45.1095 27.5854 45.1095 26.9759V25.3594C43.2487 26.134 41.2182 26.655 39.1086 26.8108C39.0668 26.8155 39.0295 26.8341 38.9853 26.8341C38.9505 26.8341 38.9179 26.8224 38.883 26.8201C38.5178 26.8434 38.1503 26.8713 37.7805 26.8713C34.9359 26.8713 32.4331 26.0014 30.7536 24.6151V45.0418C30.7536 46.2094 31.3653 47.7516 32.0375 48.2772C33.7238 49.5937 36.7452 51.1661 41.5462 51.1661C42.8697 51.1661 44.0489 51.0382 45.1119 50.8381V48.8773C45.1119 48.268 45.605 47.7748 46.2144 47.7748C46.8238 47.7748 47.3169 48.2679 47.3169 48.8773V50.2636C48.9544 49.6984 50.1872 48.9564 51.0594 48.2773C51.7921 47.7027 52.341 46.0955 52.341 45.0418V20.1493L52.3363 20.1539ZM37.7783 24.6709C37.8132 24.6709 37.8457 24.6663 37.8806 24.6663V20.954C37.8806 20.3446 38.3737 19.8515 38.9831 19.8515C40.4206 19.8515 41.4928 18.8444 41.4928 17.9442C41.4928 16.3672 39.1203 16.0346 37.1317 16.0346C33.6125 16.0346 30.7491 17.9721 30.7491 20.3516C30.7491 22.6915 33.9659 24.6686 37.7759 24.6686L37.7783 24.6709ZM52.3363 14.9324C52.3363 10.8922 49.0474 7.60308 45.007 7.60308C43.3765 7.60308 41.9669 7.81474 40.3295 8.06129C38.4082 8.35203 36.2311 8.67769 33.0025 8.80559C30.537 8.90793 27.911 8.73349 25.6291 8.48926V10.1128C25.6291 10.7222 25.136 11.2153 24.5266 11.2153C23.9172 11.2153 23.4241 10.7222 23.4241 10.1128V8.21947C22.282 8.06363 21.3238 7.90779 20.6376 7.78916C20.5957 8.00083 20.5468 8.23575 20.491 8.51251C19.8165 11.8107 18.4139 18.6768 18.4139 25.7733C18.4139 33.5629 20.0305 41.4364 20.5957 43.9439H23.4241V42.1855C23.4241 41.5761 23.9172 41.0829 24.5266 41.0829C25.136 41.0829 25.6291 41.576 25.6291 42.1855V43.9439H28.5435V20.3517C28.5435 16.693 32.3162 13.8275 37.131 13.8275C42.8459 13.8275 43.697 16.4046 43.697 17.9421C43.697 19.8424 42.1293 21.4915 40.0825 21.9381V24.4873C46.9253 23.4894 52.3308 18.3167 52.3308 14.9322L52.3363 14.9324ZM24.5296 14.8859C23.9202 14.8859 23.4271 15.379 23.4271 15.9884V18.8493C23.4271 19.4587 23.9202 19.9519 24.5296 19.9519C25.139 19.9519 25.6322 19.4588 25.6322 18.8493V15.9884C25.6322 15.379 25.1391 14.8859 24.5296 14.8859ZM24.5296 23.6199C23.9202 23.6199 23.4271 24.113 23.4271 24.7224V27.5833C23.4271 28.1927 23.9202 28.6859 24.5296 28.6859C25.139 28.6859 25.6322 28.1928 25.6322 27.5833V24.7224C25.6322 24.113 25.1391 23.6199 24.5296 23.6199ZM24.5296 32.3539C23.9202 32.3539 23.4271 32.847 23.4271 33.4564V36.3173C23.4271 36.9267 23.9202 37.4198 24.5296 37.4198C25.139 37.4198 25.6322 36.9267 25.6322 36.3173V33.4564C25.6322 32.847 25.1391 32.3539 24.5296 32.3539ZM46.2122 31.2746C45.6028 31.2746 45.1096 31.7677 45.1096 32.3771V35.2381C45.1096 35.8475 45.6027 36.3406 46.2122 36.3406C46.8215 36.3406 47.3147 35.8475 47.3147 35.2381V32.3771C47.3147 31.7678 46.8216 31.2746 46.2122 31.2746ZM46.2122 39.5245C45.6028 39.5245 45.1096 40.0176 45.1096 40.627V43.4949C45.1096 44.1043 45.6027 44.5975 46.2122 44.5975C46.8215 44.5975 47.3147 44.1044 47.3147 43.4949V40.627C47.3147 40.0177 46.8216 39.5245 46.2122 39.5245Z" fill="#8B8B8B" stroke="#8B8B8B" stroke-width="0.595445"/>
</svg>
