<svg width="50" height="45" viewBox="0 0 50 45" fill="none" xmlns="http://www.w3.org/2000/svg">
<path d="M49.4363 16.1528C49.4201 14.627 48.5734 13.229 47.229 12.5057L27.2072 1.34109C25.9116 0.622387 24.3347 0.622387 23.0391 1.34109L3.01725 12.5057C1.64957 13.243 0.798262 14.6735 0.809933 16.2272C0.809933 17.7786 1.6566 19.2068 3.01725 19.9487L7.18536 22.2817C7.17373 22.3561 7.17373 22.4306 7.18536 22.505V35.9281C7.18071 37.447 7.95992 38.8635 9.24382 39.6729C14.033 42.6269 19.548 44.1899 25.172 44.1899C30.7984 44.1899 36.3133 42.6269 41.1001 39.6729C42.3864 38.8635 43.1632 37.447 43.1609 35.9281V22.4306C43.1725 22.3561 43.1725 22.2817 43.1609 22.2073L45.6427 20.7931L45.6404 29.8736C45.6404 30.9017 46.4754 31.7344 47.5011 31.7344C48.5292 31.7344 49.3619 30.9017 49.3619 29.8736V16.9971C49.4131 16.718 49.4387 16.4366 49.4363 16.1528ZM39.3882 35.8513V35.8536C39.4045 36.0769 39.2998 36.2932 39.1161 36.4235C34.9131 39.0262 30.0683 40.4055 25.1231 40.4055C20.178 40.4055 15.3334 39.0262 11.1302 36.4235C10.9464 36.2932 10.8417 36.0769 10.858 35.8536V24.2657L23.039 31.0645C24.3416 31.7623 25.9046 31.7623 27.2072 31.0645L39.3882 24.2657L39.3882 35.8513ZM45.4171 16.6226L25.3953 27.8128V27.8151C25.2208 27.8895 25.0254 27.8895 24.851 27.8151L4.82915 16.6249C4.6454 16.5389 4.53143 16.3551 4.53143 16.1527C4.52445 15.9504 4.64075 15.7643 4.82915 15.6829L24.851 4.51831C25.0185 4.42062 25.2278 4.42062 25.3953 4.51831L45.4171 15.6829C45.5241 15.7387 45.6101 15.8248 45.666 15.9295C45.6543 16.0295 45.6543 16.1295 45.666 16.2272V16.4505C45.6101 16.5389 45.5194 16.6017 45.4171 16.6249V16.6226Z" fill="#8B8B8B"/>
</svg>
