<svg width="57" height="51" viewBox="0 0 57 51" fill="none" xmlns="http://www.w3.org/2000/svg">
<path d="M13.6217 25.0025H1.89437C1.07206 25.0025 0.405762 24.3362 0.405762 23.5139C0.405762 22.6916 1.07206 22.0253 1.89437 22.0253H12.7428L15.8141 16.4507C16.1041 15.9238 16.6906 15.6237 17.2813 15.6898C17.8797 15.7559 18.3793 16.1756 18.5472 16.7532L20.6503 23.976L23.3846 19.943C23.7079 19.4667 24.2718 19.2196 24.8458 19.3077C25.415 19.3964 25.8819 19.8055 26.045 20.3581L28.3268 28.1036L32.0846 15.1515C32.2674 14.5239 32.8373 14.0886 33.4905 14.0779C33.4988 14.0779 33.5065 14.0779 33.5143 14.0779C34.158 14.0779 34.7302 14.4923 34.9297 15.1062L37.181 22.0265H44.0126C44.8349 22.0265 45.5012 22.6928 45.5012 23.5151C45.5012 24.3374 44.8349 25.0037 44.0126 25.0037H36.0997C35.4548 25.0037 34.8838 24.5887 34.6843 23.9754L33.5953 20.6284L29.7672 33.8234C29.5826 34.4582 29.0014 34.8958 28.3405 34.897C28.3405 34.897 28.3387 34.897 28.3375 34.897C27.6777 34.897 27.096 34.4624 26.9096 33.8294L24.0801 24.2237L21.3386 28.2673C21.0147 28.7443 20.4443 28.9914 19.875 28.9027C19.3052 28.8128 18.8384 28.4019 18.677 27.8482L16.6912 21.0279L14.9257 24.232C14.6637 24.7072 14.1641 25.0025 13.6217 25.0025ZM56.973 17.3314C56.973 7.88586 49.8938 0.486267 40.8573 0.486267C36.6523 0.486267 32.9331 2.15649 30.1988 5.23137C27.464 2.15589 23.7448 0.486267 19.5404 0.486267C10.5033 0.486267 3.42467 7.88527 3.42467 17.3564L3.42645 17.4594C3.44015 18.2728 4.10407 18.923 4.91447 18.923C4.9234 18.923 4.93174 18.923 4.94007 18.923C5.76238 18.9093 6.41737 18.2317 6.40368 17.4094L6.40189 17.3314C6.40189 9.55489 12.1729 3.46349 19.5404 3.46349C24.4897 3.46349 27.4009 6.19539 28.971 8.48726C29.2485 8.89216 29.7082 9.13451 30.1988 9.13451C30.6895 9.13451 31.1498 8.89216 31.4267 8.48726C32.9968 6.19539 35.9074 3.46349 40.8573 3.46349C48.2248 3.46349 53.9958 9.55489 53.9964 17.2987L53.994 17.4064C53.9934 17.4273 53.9934 17.4475 53.994 17.4684C54.0286 19.2065 53.6624 34.8113 30.4722 47.3275C30.3036 47.4181 30.0923 47.4181 29.9249 47.3275C20.3383 42.1537 13.5067 35.8771 9.61908 28.6723C9.22847 27.9482 8.32518 27.6796 7.60171 28.0691C6.87825 28.4597 6.60851 29.3624 6.99853 30.0858C11.166 37.8105 18.4037 44.4932 28.5108 49.9481C29.0276 50.2268 29.6111 50.3738 30.1977 50.3738C30.7836 50.3738 31.3677 50.2262 31.8851 49.9475C56.5056 36.6607 57.0046 19.5084 56.9706 17.4404L56.973 17.3314Z" fill="#8B8B8B"/>
</svg>
