<svg width="49" height="53" viewBox="0 0 49 53" fill="none" xmlns="http://www.w3.org/2000/svg">
<path d="M34.6744 24.2694L32.2471 23.3942C30.0309 22.5953 28.3003 20.8646 27.5013 18.6485L26.6262 16.2168C26.341 15.4309 25.5878 14.9041 24.7518 14.9041C23.9159 14.9041 23.1626 15.4331 22.8774 16.2211L22.0023 18.6528C21.2055 20.869 19.4726 22.5996 17.2587 23.3986L14.8248 24.2715C14.0412 24.5567 13.5143 25.31 13.5143 26.1416C13.5143 26.9732 14.0411 27.7264 14.8292 28.0138L17.2565 28.8889C19.4727 29.6879 21.2033 31.4186 22.0023 33.6347L22.8774 36.0664C23.1604 36.8545 23.9137 37.3835 24.7518 37.3835C25.5899 37.3835 26.341 36.8545 26.6262 36.0664L27.5013 33.6347C28.2981 31.4185 30.031 29.6879 32.2449 28.8889L34.6788 28.0138C35.4625 27.7286 35.9893 26.9754 35.9893 26.1438C35.9893 25.31 35.4625 24.5567 34.6744 24.2694ZM24.7516 31.2184C23.6523 29.0175 21.8758 27.2433 19.6749 26.1417C21.8758 25.0423 23.6523 23.2659 24.7516 21.065C25.851 23.2659 27.6274 25.0401 29.8283 26.1417C27.6274 27.2411 25.851 29.0175 24.7516 31.2184Z" fill="#8B8B8B"/>
<path d="M46.1098 10.1302L27.0985 0.577413C25.6291 -0.162742 23.8723 -0.158395 22.4072 0.577413L3.39362 10.1302C1.60852 11.0271 0.504785 12.8209 0.513479 14.815C0.543957 21.6659 2.26157 44.6001 23.0168 51.9671C23.5763 52.1652 24.1641 52.2653 24.7519 52.2653C25.3397 52.2653 25.9275 52.1652 26.4848 51.9671C47.2421 44.6001 48.9597 21.6659 48.9904 14.815C48.9991 12.8209 47.895 11.027 46.1098 10.1302ZM25.3196 48.6844C24.9583 48.8129 24.5446 48.8107 24.1832 48.6844C5.56594 42.0776 4.02444 21.0784 3.99601 14.7976C3.99166 14.138 4.36175 13.5415 4.95608 13.2432L23.9696 3.69046C24.2156 3.56637 24.4834 3.50541 24.7511 3.50541C25.0189 3.50541 25.2867 3.56855 25.5326 3.69046L44.5462 13.2432C45.1426 13.5436 45.5106 14.138 45.5084 14.7976C45.4779 21.0784 43.9373 42.077 25.3196 48.6844Z" fill="#8B8B8B"/>
</svg>
