<svg width="50" height="53" viewBox="0 0 50 53" fill="none" xmlns="http://www.w3.org/2000/svg">
<path d="M31.644 24.5047C31.644 24.5047 31.6719 24.4489 31.6813 24.421L34.2863 13.1261C34.6027 11.7677 33.8397 10.4094 32.5093 9.9628C31.2533 9.54413 29.8484 10.121 29.253 11.3119L22.6565 24.421C22.182 25.3699 21.9215 26.4399 21.9215 27.5098C21.9215 29.5194 21.1307 31.4081 19.7631 32.8037C19.6328 32.4502 19.2979 32.1896 18.8978 32.1896H12.962C12.4502 32.1896 12.0316 32.6083 12.0316 33.12V33.1759H2.08578C1.57407 33.1759 1.1554 33.5945 1.1554 34.1062C1.1554 34.6179 1.57407 35.0366 2.08578 35.0366H12.0409V45.0475H2.08578C1.57407 45.0475 1.1554 45.4662 1.1554 45.9779C1.1554 46.4896 1.57407 46.9083 2.08578 46.9083H12.0409V46.9641C12.0409 47.4758 12.4595 47.8945 12.9713 47.8945H18.9071C19.4188 47.8945 19.8375 47.4758 19.8375 46.9641V44.9266H25.2151C28.3319 44.9266 31.0579 42.8239 31.858 39.8095L33.3001 34.3388C33.3001 34.3388 33.3001 34.3202 33.3001 34.3109L34.4352 29.1008C34.5003 28.831 34.5282 28.5425 34.5282 28.2541C34.5282 26.4957 33.328 24.9606 31.644 24.514V24.5047ZM17.9767 46.0337H13.9016V34.0411H17.9767V46.0337ZM30.0531 39.335C29.4762 41.5307 27.4852 43.0658 25.2151 43.0658H19.8375V35.1762C22.3123 33.3991 23.7916 30.5708 23.7916 27.5005C23.7916 26.719 23.9777 25.9468 24.3219 25.249L30.9183 12.1399C31.1044 11.7677 31.5324 11.591 31.9232 11.7212C32.3325 11.8608 32.5651 12.2795 32.4721 12.6981L29.867 23.993C29.8298 24.1418 29.8484 24.2907 29.8856 24.4303C29.4111 24.5233 28.9459 24.7001 28.5273 24.9699C27.6527 25.5281 27.0479 26.4027 26.8247 27.4168L25.7826 32.2176C25.671 32.72 25.9966 33.2131 26.4897 33.3247C26.9921 33.4364 27.4852 33.1107 27.5969 32.6176L28.6389 27.8168C28.7505 27.2865 29.0669 26.8306 29.5228 26.5422C29.9787 26.2445 30.5276 26.1515 31.0672 26.2631C31.9976 26.4585 32.6675 27.2958 32.6675 28.2448C32.6675 28.403 32.6489 28.5425 32.6209 28.6914L31.4859 33.9016C31.4859 33.9016 31.4859 33.9109 31.4859 33.9202L30.0624 39.335H30.0531Z" fill="#8B8B8B" stroke="#8B8B8B" stroke-width="1.19089"/>
<path d="M47.5998 6.15759H37.7098C37.1981 6.15759 36.7794 6.57626 36.7794 7.08798V50.6206C36.7794 51.1323 37.1981 51.551 37.7098 51.551H47.5998C48.1115 51.551 48.5302 51.1323 48.5302 50.6206V7.08798C48.5302 6.57626 48.1115 6.15759 47.5998 6.15759ZM46.6694 49.6902H38.6402V8.01836H46.6694V49.6902Z" fill="#8B8B8B" stroke="#8B8B8B" stroke-width="1.19089"/>
<path d="M4.92318 26.7844H11.3893L10.4031 27.7706C10.0403 28.1334 10.0403 28.7195 10.4031 29.0824C10.5892 29.2685 10.8218 29.3522 11.0637 29.3522C11.3056 29.3522 11.5382 29.2592 11.7243 29.0824L14.2921 26.5145C14.655 26.1517 14.655 25.5656 14.2921 25.2027L11.4545 22.365C11.0916 22.0022 10.5055 22.0022 10.1426 22.365C9.77978 22.7279 9.77978 23.314 10.1426 23.6769L11.3893 24.9236H4.92318C4.41147 24.9236 3.9928 25.3423 3.9928 25.854C3.9928 26.3657 4.41147 26.7844 4.92318 26.7844Z" fill="#8B8B8B" stroke="#8B8B8B" stroke-width="1.19089"/>
<path d="M10.859 16.8943H17.3251L16.3389 17.8805C15.9761 18.2433 15.9761 18.8295 16.3389 19.1923C16.525 19.3784 16.7576 19.4621 16.9995 19.4621C17.2414 19.4621 17.474 19.3691 17.6601 19.1923L20.2279 16.6245C20.5908 16.2616 20.5908 15.6755 20.2279 15.3126L17.3903 12.475C17.0274 12.1121 16.4413 12.1121 16.0784 12.475C15.7156 12.8378 15.7156 13.4239 16.0784 13.7868L17.3251 15.0335H10.859C10.3473 15.0335 9.92859 15.4522 9.92859 15.9639C9.92859 16.4756 10.3473 16.8943 10.859 16.8943Z" fill="#8B8B8B" stroke="#8B8B8B" stroke-width="1.19089"/>
<path d="M16.795 6.00868H23.2612L22.275 6.99489C21.9121 7.35774 21.9121 7.94388 22.275 8.30673C22.461 8.4928 22.6936 8.57654 22.9355 8.57654C23.1774 8.57654 23.41 8.4835 23.5961 8.30673L26.164 5.73887C26.3407 5.5621 26.4338 5.3295 26.4338 5.0783C26.4338 4.8271 26.3314 4.5945 26.164 4.41773L23.3263 1.58006C22.9634 1.21721 22.3773 1.21721 22.0145 1.58006C21.6516 1.94291 21.6516 2.52905 22.0145 2.8919L23.2612 4.13861H16.795C16.2833 4.13861 15.8646 4.55728 15.8646 5.06899C15.8646 5.58071 16.2833 5.99938 16.795 5.99938V6.00868Z" fill="#8B8B8B" stroke="#8B8B8B" stroke-width="1.19089"/>
</svg>
