<svg width="63" height="61" viewBox="0 0 63 61" fill="none" xmlns="http://www.w3.org/2000/svg">
<path d="M62.0337 39.9363L55.4417 36.131C55.2177 36.0003 54.9617 35.9336 54.7004 35.9336C54.5724 35.9336 54.4417 35.9496 54.3164 35.9843C54.2497 36.003 54.1857 36.0243 54.1244 36.051C52.9324 34.6323 51.9324 33.395 51.1164 32.3843C49.1057 29.8936 47.7777 28.2963 46.2764 27.1256C44.9564 26.0963 43.5084 25.403 41.4391 24.8269L45.0391 21.227C46.5377 19.7283 47.5964 17.8216 48.1191 15.6803H55.0174C55.8334 15.6803 56.4975 15.0163 56.4975 14.2002C56.4975 13.3843 55.8334 12.7202 55.0174 12.7202H48.4868C48.4974 11.5176 48.3427 10.3149 48.0281 9.13888C46.9054 4.94422 44.0041 1.84252 40.2655 0.840363C39.4015 0.608365 38.4975 0.491028 37.5828 0.491028C36.1348 0.491028 34.6201 0.784364 33.0895 1.36566C30.7534 2.25101 28.3694 3.80299 25.9959 5.98699C22.5239 2.78964 19.0729 0.968281 15.7347 0.573631C15.2973 0.522964 14.8546 0.496298 14.4227 0.496298C11.636 0.496298 9.116 1.5416 7.13722 3.52031C4.99855 5.65898 3.67855 8.75235 3.51321 12.0134C3.33188 15.5601 4.55052 18.8321 6.94518 21.2267L10.7879 25.0694C8.85986 23.3253 7.10786 22.4747 5.45717 22.4747C5.36384 22.4747 5.2705 22.4773 5.17984 22.4827C3.37452 22.5893 1.87313 23.704 0.718464 25.7947C0.4518 26.28 0.475796 26.8667 0.779798 27.328L13.5211 46.5629C13.7051 46.8402 13.9798 47.0509 14.2971 47.1522C16.3558 47.8216 18.1024 48.4189 19.6438 48.9469C25.5611 50.9682 28.5321 51.9816 33.9347 51.9816C36.0307 51.9816 38.5081 51.8322 41.9404 51.5016L44.0017 52.9843L43.2923 54.2163C42.8843 54.923 43.127 55.8296 43.8337 56.2376L50.4257 60.0456C50.6497 60.1762 50.9057 60.2429 51.167 60.2429C51.2976 60.2429 51.4256 60.2269 51.551 60.1922C51.9323 60.0909 52.2523 59.8456 52.4496 59.5016L62.5722 41.9604C62.9802 41.2537 62.7376 40.3471 62.0309 39.9391L62.0337 39.9363ZM39.9057 6.45619C39.2363 6.45619 38.6497 6.90686 38.4763 7.55221L36.079 16.4938L35.1056 13.1791C34.9216 12.5524 34.3376 12.1151 33.6843 12.1151H27.4816C26.6656 12.1151 26.0016 12.7791 26.0016 13.5951C26.0016 14.4111 26.6656 15.0751 27.4816 15.0751H32.5776L34.7243 22.3845C34.9083 23.0111 35.4923 23.4485 36.1456 23.4485H36.1669C36.8229 23.4405 37.4043 22.9898 37.5749 22.3525L39.9083 13.6539L40.1563 14.5793C40.3296 15.2246 40.9163 15.6753 41.5856 15.6753H45.0443C44.6097 17.0006 43.8923 18.182 42.9457 19.1286L38.0176 24.062C35.8389 23.6567 33.0842 23.246 29.6392 22.734L28.4072 22.55C28.3352 22.5393 28.2606 22.534 28.1886 22.534C28.0606 22.534 27.9299 22.55 27.8072 22.5847C26.0472 23.054 24.8019 24.2087 24.3859 25.75C23.9619 27.3313 24.5059 29.0274 25.8819 30.4033C26.0606 30.582 26.2846 30.7127 26.5272 30.782L30.2472 31.8327L26.2845 35.7954C26.0845 35.7821 25.8712 35.7634 25.6445 35.7341L9.04478 19.1316C5.11677 15.2036 5.99407 8.85399 9.23678 5.61132C10.2208 4.62732 11.9168 3.45128 14.3941 3.45128C14.7195 3.45128 15.0555 3.47262 15.3914 3.51262C18.3514 3.86195 21.6555 5.78993 24.9543 9.08599C25.2343 9.36599 25.6049 9.52066 25.9996 9.52066C26.3942 9.52066 26.7676 9.36599 27.0449 9.08599C30.7275 5.40334 34.3808 3.45664 37.6126 3.45664C38.2632 3.45664 38.8979 3.5393 39.4979 3.69931C42.2019 4.42464 44.3192 6.74462 45.1672 9.90463C45.4152 10.8326 45.5352 11.7766 45.5272 12.7206H42.7219L41.3379 7.55795C41.1646 6.91262 40.5779 6.46193 39.9085 6.46193L39.9057 6.45619ZM33.5083 32.7526L34.2016 32.9472L34.2656 33.0912C33.4843 33.4726 32.7829 33.8139 32.1456 34.1126L33.5083 32.7499L33.5083 32.7526ZM14.5991 34.3153C15.2444 35.2113 15.8017 35.9873 16.2737 36.5766C16.4951 36.8539 16.8124 37.0433 17.1617 37.1073C18.9537 37.4353 20.4231 37.7419 21.6017 37.99C23.9004 38.47 25.3777 38.7633 26.7858 38.7633C29.4285 38.7633 31.6018 37.6966 36.847 35.1233C37.5643 34.7713 37.871 33.926 37.5483 33.1953L36.6282 31.1126C36.4496 30.7073 36.1029 30.4059 35.6762 30.286L33.5323 29.6806C33.4949 29.67 33.4576 29.6593 33.4229 29.6486L27.7323 28.0406C27.3003 27.5126 27.1216 26.9633 27.2416 26.5126C27.3563 26.0886 27.7376 25.734 28.3029 25.5233L29.199 25.6566C33.159 26.2459 36.0176 26.6726 38.2231 27.1099H38.2258C40.2098 27.5019 41.5671 27.8886 42.6338 28.3633C44.8738 29.3579 46.1084 30.8859 48.8151 34.238C49.7591 35.4059 50.9165 36.8433 52.3485 38.5287L45.4952 50.4009L43.2205 48.7663C42.9672 48.585 42.6686 48.489 42.3566 48.489C42.3086 48.489 42.2579 48.4916 42.2072 48.497C38.5485 48.8596 35.9992 49.0223 33.9381 49.0223C29.0447 49.0223 26.3994 48.1183 20.6049 46.1423C19.1836 45.6569 17.5782 45.1103 15.7089 44.4969L3.77581 26.4888C4.27448 25.8141 4.79449 25.4701 5.35448 25.4354C5.38915 25.4328 5.42381 25.4328 5.45848 25.4328C8.20513 25.4328 12.3568 31.2034 14.5864 34.302L14.5944 34.3127L14.5991 34.3153ZM18.2551 34.2993C17.8978 33.8273 17.4818 33.2486 17.0098 32.5953L16.9964 32.5766C15.6044 30.6406 14.0445 28.4726 12.3458 26.6192L20.4552 34.7314C19.7885 34.5954 19.0578 34.4514 18.2551 34.302L18.2551 34.2993ZM59.2739 41.7608L50.6313 56.7372L46.602 54.4092L55.2473 39.4328L59.274 41.7581L59.2739 41.7608Z" fill="#8B8B8B"/>
</svg>
