<svg width="824" height="732" viewBox="0 0 824 732" fill="none" xmlns="http://www.w3.org/2000/svg">
<path d="M57.8552 191.577L51.02 211.704L54.4377 215.501L77.6017 235.247C86.2092 231.577 103.88 223.931 105.702 222.716C107.525 221.501 121.398 200.185 128.107 189.679C136.588 184.236 154.461 173.35 158.106 173.35C162.663 173.35 152.79 115.25 153.549 112.972C154.157 111.149 143.929 88.4151 138.74 77.2761H123.55C119.753 78.0356 110.867 79.9343 105.702 81.4533C100.538 82.9722 94.1837 84.3646 91.6521 84.8709V95.8833C91.1458 99.0478 89.6774 106.364 87.8547 110.313C85.5763 115.25 78.741 107.655 74.9436 117.149C74.1841 125.123 68.488 124.743 61.6527 128.921C60.1338 133.477 57.8552 134.237 54.4377 134.237C51.0202 134.237 44.1847 138.034 43.4253 140.693C42.6658 143.351 42.6657 145.629 40.0076 146.009C37.3494 146.389 40.0076 150.186 40.0076 151.705C40.0076 153.224 38.8683 163.097 40.0076 165.755C40.9189 167.882 45.1973 171.704 47.2226 173.35L57.8552 191.577Z" fill="white" stroke="#D9D9D9" stroke-width="2" stroke-linecap="round" stroke-linejoin="round"/>
<path d="M30.9732 668.79C32.2497 668.79 30.6186 669.41 34.4305 668.79C37.9766 670.208 45.6537 673.045 47.9941 673.045C50.3344 673.045 54.9974 653.719 57.0363 644.057C57.125 632.532 57.2491 608.792 57.0363 606.026C56.7704 602.569 63.951 566.134 65.0148 564.804C65.8658 563.74 67.6743 551.063 68.4721 544.858L53.0471 541.4C52.072 545.833 50.0153 554.698 49.5898 554.698H45.0686C43.207 555.939 39.1646 559.219 37.888 562.41C36.6115 565.602 32.7464 573.846 30.9734 577.569L28.8458 579.963C24.3246 582.179 14.6441 586.825 12.091 587.676C9.5379 588.527 11.0272 592.285 12.091 594.058V604.164C12.091 605.228 7.48116 617.196 5.17624 623.047V638.472L1.71899 645.12V666.928C4.63235 666.928 4.02382 668.258 5.17624 666.928L17.6759 665.598V668.79H30.9732Z" fill="white" stroke="#D9D9D9" stroke-width="2" stroke-linecap="round" stroke-linejoin="round"/>
<path d="M337.956 614.575V614.488L289.427 575.545L285.761 573.274L282.793 570.829L282.008 570.393L280.873 569.869L280.699 569.782L280.437 569.694L278.429 569.345L277.295 568.909L272.843 567.773L271.01 566.988L269.788 566.114L266.472 564.193L258.354 557.907L250.324 546.992L249.626 545.071L249.19 544.198L248.579 542.277L248.491 542.015L248.317 541.666L248.142 540.793L247.008 537.999L246.309 536.776L234.701 526.036L233.566 525.163L231.559 523.853L221.957 514.249L220.125 513.026L219.339 512.328L213.142 502.112L213.055 501.937L212.706 501.326L211.92 499.492L211.833 499.23L211.745 498.968L211.658 498.706L211.571 498.532L210.873 498.008L208.516 497.222L206.159 497.484H204.85L204.326 497.397L203.104 496.96L191.496 490.149H191.409H191.321L190.623 489.713L189.314 488.752L185.212 484.998L184.688 484.037L184.339 483.601L184.164 483.426L183.64 482.989L183.466 482.815L183.117 482.204L182.942 481.767L182.768 481.418L181.633 479.409L181.371 478.973L180.498 477.576L180.411 477.401L179.713 476.091L177.88 473.297L177.094 471.726L176.396 470.765L174.301 468.582L172.556 465.875L170.897 464.216L168.191 460.898L167.842 460.374L167.755 460.113L166.271 457.93L165.573 457.318H165.049L164.089 457.406L160.511 458.541L156.321 460.898L156.059 460.986H155.012L146.545 459.851L144.451 458.628L143.84 458.541H141.047L139.126 458.977L136.246 460.636L135.81 460.724L133.802 461.335L133.191 459.938L130.311 457.056L129.525 454.961L128.914 452.254L129.874 450.42L131.009 448.849L131.184 447.626L131.271 446.928L130.66 445.793L129.874 445.618L129.002 445.705L128.129 445.356L126.82 443.959L124.288 440.292L123.677 439.157L123.328 438.022L123.503 436.799L123.852 436.101L124.288 435.402L124.55 434.354L124.987 431.997L125.074 430.425L124.463 429.115L122.543 427.806L121.67 428.068L120.797 427.544L119.139 425.361L117.044 424.488L115.473 423.178L114.251 421.257L113.553 418.812L112.243 418.375L111.894 418.288L111.283 418.201H110.847L110.323 418.113L109.188 418.026H108.578H107.879H106.919L106.657 418.113H105.173L102.817 418.812L102.468 418.987H102.119H101.857L101.508 418.812L101.159 418.201L100.024 415.931L100.286 415.581L100.46 415.494L101.944 413.835L105.261 412.089L107.53 410.255L108.141 407.897L107.967 405.802L108.228 404.056L109.974 402.92V403.008L111.72 403.444L113.029 404.492L113.291 404.317L113.902 403.794L114.338 399.253L111.458 400.214L108.49 400.301L105.697 399.253L103.253 397.158L100.46 392.006L99.5874 391.395L98.7146 390.783L96.1834 392.53L95.8343 393.665L95.747 396.546L95.3106 397.856L94.1759 398.991L93.3031 399.428L93.0412 399.602L85.7968 399.952L85.0985 399.69L83.702 398.642L83.4402 398.555L83.091 398.38L82.3928 398.555L81.6072 399.079L80.909 399.428L80.3853 399.602L75.2356 399.253V399.166L75.3229 398.642L75.4974 397.681L75.672 394.8L75.9339 393.84L84.0511 379.083L86.8442 375.241L87.0187 375.067L87.1933 374.979L87.3679 374.805L88.1534 374.63L88.5898 374.281L89.1135 373.844L90.9464 371.399L94.0886 368.692L94.4377 368.256L94.6996 367.819V367.47V366.51L94.4377 365.112V364.589L94.525 363.977L94.7869 362.668L95.0487 362.056L95.2233 361.707L95.4851 361.358L95.6597 361.183L96.0961 360.921L96.9689 360.485L99.151 359.786L99.9365 361.183L100.024 361.62L99.6747 361.794L99.5001 362.056L98.7146 363.017L98.6273 363.366L98.7146 363.628L98.9764 363.715L99.2383 363.803H99.5001L99.8493 364.152L100.373 364.676L101.42 366.335L101.944 366.946L102.468 367.295L102.73 367.208L102.904 367.121L103.253 366.772L104.65 364.851L104.912 364.501L105.261 364.327H105.697L106.57 364.239L107.006 364.501L107.356 364.763L108.228 366.16L111.807 367.033L112.243 366.946L112.854 366.684L113.116 366.335L114.076 365.287L114.251 364.938V364.676V363.453L114.425 363.017L114.6 362.493L115.298 361.707L115.473 361.271L115.56 360.834L115.473 359.961V358.738L118.44 355.508L119.401 353.936L120.361 352.626L120.535 352.539L120.623 352.452L120.884 352.277L121.932 352.015H122.455H122.805L123.241 352.19L123.677 352.452L123.852 352.626L124.027 352.801L124.114 353.063L124.201 353.325V353.587L124.114 353.849L124.027 354.111L123.765 354.547L123.328 355.071L123.241 355.333L123.154 355.595V355.857L123.241 356.119L123.416 356.294L123.59 356.381L124.463 356.468H124.725L124.987 356.556L125.161 356.73L125.423 356.817L125.51 357.079L125.598 357.341V357.603V358.302L125.859 358.651L126.209 359L127.343 359.524L128.042 359.612L128.565 359.699L128.827 359.612L129.351 359.437L130.747 358.564L133.453 357.865L139.301 358.127L148.64 353.325L149.775 352.888L149.949 353.063H150.299H150.735L151.782 352.801H152.742H152.917L153.353 352.888L157.107 352.626L157.543 352.452L159.114 350.967L159.812 350.618L160.598 350.443H161.733L162.256 350.356L162.78 350.181L164.526 348.959L165.311 348.697L166.009 348.522L167.231 348.697L168.802 349.221L170.548 350.705L171.159 351.491L171.246 351.753L174.912 359L177.88 365.636L180.324 364.763L181.022 364.414L186.957 359.612L187.743 359.088L188.79 358.738L190.798 358.564L191.409 358.389L191.758 358.215L193.067 356.468L193.503 356.119L193.853 355.944H194.376H194.725L194.987 356.032L195.162 356.119L195.86 356.556L196.209 356.817L196.384 356.992L197.344 357.341L198.304 357.865H198.566L198.74 357.603L198.915 356.817L199.351 356.294L200.05 355.595L202.843 353.761L203.541 353.499H204.152H204.414L204.937 353.674L205.374 353.936L205.723 354.198L206.072 354.547L206.247 354.722L206.334 354.897L206.858 356.119L207.294 356.992L207.556 357.341L207.73 357.516L208.167 357.778L209.127 358.302L210.611 358.651H211.047L211.396 358.564L212.182 358.04L212.793 357.341L212.967 357.079L213.055 356.905L213.229 356.381L213.666 354.547L213.753 354.285L213.927 354.111L214.102 353.936L214.975 353.063L215.062 352.888L215.237 352.714L215.499 351.491L215.673 351.142L215.935 350.618L216.371 350.356L216.633 350.181L216.982 350.094H218.204L220.125 350.618L220.474 350.531L220.736 350.356V350.007V349.745L220.823 349.308L220.997 348.784L221.608 347.999L222.045 347.737L222.394 347.649L222.656 347.737L222.83 347.824L224.052 348.697L225.012 348.959L225.972 349.046L226.845 348.784L227.631 348.522L228.678 347.737L229.202 347.475L229.638 347.387H230.337L231.908 347.125H232.606L233.479 347.3L234.875 347.213L235.486 347.3L235.923 347.475L236.185 347.649L236.359 347.824L237.406 349.658L237.843 350.269L238.105 350.443L238.628 350.618L239.589 350.793H240.025L240.374 350.705L240.549 350.618L240.723 350.443L240.81 350.356L240.985 350.007L241.072 349.745L241.16 349.483V349.134V348.872L241.072 348.348L240.461 346.601L240.374 345.99V342.236L240.636 340.227L240.81 339.704L241.247 338.743L241.334 338.568L241.509 338.394L242.032 337.87L242.818 337.259L245.175 336.036L248.84 333.417L249.626 332.98L250.324 332.806H251.372H251.895L253.554 332.456L259.053 330.448L268.915 328.09H269.439L269.788 328.178L270.05 328.265L270.836 328.789L271.534 329.4L272.93 331.059L273.105 331.234L273.454 331.496L273.978 331.67L274.414 331.845L275.025 331.932L277.469 332.02L277.993 332.107L278.167 332.282L278.604 332.544L278.778 332.718L279.302 333.417L279.651 334.028L279.913 334.552L280 334.814L280.175 335.25L280.262 335.512L280.437 335.687L281.048 336.385L281.222 336.56L281.31 336.735L281.833 338.83L282.008 339.616L282.095 341.188L282.532 343.109L282.619 343.371L282.706 343.545L283.142 344.157L284.19 345.117L284.539 345.379L284.801 345.466L291.522 351.055L292.307 351.928L293.355 353.499L297.981 359.524L298.679 360.135L299.028 360.223L299.377 360.135L300.25 359.786L300.512 359.612L302.694 357.167L302.868 356.905L303.043 356.468L303.13 355.944L303.305 355.682L303.479 355.246L303.654 355.071L303.741 354.809L303.828 354.547L303.916 354.285L304.003 353.674V353.063L303.916 351.84V351.578L304.003 351.317L304.09 351.055L304.701 349.919L305.312 348.522L305.4 348.26L306.098 347.3L306.272 347.125L306.36 346.863L306.447 346.601L306.622 345.379V345.03L307.145 344.419L310.375 341.363L312.382 339.878L328.093 332.893L328.966 332.107L329.315 331.408L328.704 326.519V325.296L328.879 324.074L329.228 322.851L329.751 321.28L330.188 320.319L333.155 315.953L334.29 313.858L335.512 310.802L336.123 308.444L336.472 292.116L336.298 289.584L346.859 288.362L381.946 291.068L448.456 309.056L460.501 318.835L464.254 323.637L471.76 339.791L472.196 341.101L472.284 342.498L471.498 350.88L471.585 352.452L472.109 353.761L472.633 354.635L492.271 382.75L559.479 479.671V479.759L550.925 484.91L537.746 492.943L524.566 500.889L511.386 508.835L498.207 516.781L485.027 524.726L471.847 532.672L458.668 540.618L445.488 548.564L432.221 556.51L419.041 564.455L405.862 572.314L392.682 580.26L363.53 598.421L337.956 614.575Z" fill="white" stroke="#D9D9D9" stroke-width="2" stroke-linecap="round" stroke-linejoin="round"/>
<path d="M75.2357 399.253L73.0537 399.078L72.2681 398.991H72.1808L70.9589 399.253H70.5225L69.0387 399.515L68.0786 399.428H67.904H66.4202H66.3329L66.2456 399.34H66.1583L65.8965 399.253L65.5474 399.166L65.0237 398.991L63.8017 398.642L61.9688 397.157L61.7069 396.983L60.8341 396.546H60.7468L60.3104 396.372L59.7867 396.197L58.2156 396.284L57.7792 393.577L55.5972 389.124L54.8116 385.195L53.5897 383.099L53.3278 381.79V375.852L52.9787 374.979L50.8839 371.312L50.4475 369.915L49.8365 366.859L45.9961 356.468L46.6944 356.031L46.7816 355.333L47.4799 354.46L47.6545 353.412L47.4799 352.451L46.7816 351.491V350.443L47.3926 349.832V349.745L47.1308 349.57L46.7816 348.522L47.7417 346.427L48.44 345.379L49.3128 344.418L50.0111 342.235L49.5747 340.053L48.8764 338.132L48.44 336.473V329.487L49.2256 327.741L54.8116 319.097L57.3428 316.565L56.2954 312.635L53.5897 307.222L53.677 307.309L58.7393 308.968L60.5723 310.19L64.0636 313.159L64.8491 313.421L82.8293 311.937L83.2657 311.849L84.1385 311.413L85.7969 310.365L87.368 310.54L91.994 312.81L92.0813 315.604L93.4778 332.805V335.076L92.5177 338.394L92.0813 339.267L91.7321 339.791L90.8593 340.402L90.4229 340.751L89.6373 341.712L89.2009 341.974L87.5426 342.061L87.0189 342.235L86.3206 342.847L85.7969 343.021L84.7495 343.196L84.2258 343.371L83.7894 343.545L83.0912 344.156L82.6547 344.418L82.2183 344.506H81.6946L80.56 344.244L79.4253 344.331L78.1161 345.117L78.9889 348.959L84.575 350.094L86.4952 350.181L91.1211 349.745L92.1685 350.007L92.8668 350.356L93.5651 352.102L94.0887 354.11L94.4379 355.071L94.6124 355.508L95.1361 355.944L98.191 358.127L98.7147 358.826L99.1511 359.786L96.9691 360.485L96.0962 360.921L95.6598 361.183L95.4853 361.358L95.2234 361.707L95.0489 362.056L94.787 362.667L94.5252 363.977L94.4379 364.588V365.112L94.6997 366.509V367.47V367.819L94.4379 368.256L94.0887 368.692L90.9466 371.399L89.1136 373.844L88.59 374.281L88.1535 374.63L87.368 374.804L87.1934 374.979L87.0189 375.066L86.8443 375.241L84.0513 379.083L75.934 393.839L75.6721 394.8L75.4976 397.681L75.323 398.642L75.2357 399.166V399.253Z" fill="white" stroke="#D9D9D9" stroke-width="2" stroke-linecap="round" stroke-linejoin="round"/>
<path d="M337.956 614.575L327.831 620.949L307.145 634.046L291.958 643.826L271.447 657.01L251.023 670.195L240.112 677.268L240.025 677.181L238.018 674.561L236.97 673.426L231.122 669.147L214.975 652.732L214.626 652.208L214.539 652.121V651.946L214.364 651.335L213.84 644.874L213.491 643.476L213.317 643.04L213.055 642.516L212.618 641.73L211.746 640.857L209.913 640.246L206.421 640.071L205.898 640.246L205.548 640.595L205.374 640.682L205.199 640.857L204.763 641.032H204.501L202.93 640.333L196.908 636.84L196.646 635.967L196.471 635.618L196.209 635.356L195.947 635.094L195.773 634.919V634.745L195.598 634.483L195.511 634.308L195.336 633.872L195.162 633.697L194.9 633.348L194.638 633.26V633.173L194.464 632.999L194.289 632.737L194.027 632.3L193.765 631.863V631.689L193.678 631.514V630.728L193.765 630.204V629.855V629.593L193.678 629.331V629.157L193.503 628.895L193.416 628.72L193.242 628.545L192.893 628.283L191.496 627.41L190.885 626.974L190.536 626.624L190.361 626.537L189.75 626.188L181.982 624.442H181.284L179.276 624.18L178.84 623.918L176.396 622.084L176.047 621.822L175.96 621.56L175.872 621.385L175.698 620.862L175.611 620.25L175.523 619.028L175.261 617.806L175.087 617.282L174.912 617.02L174.65 616.67L170.461 612.392L170.199 612.043L169.937 611.606L169.675 609.86L169.588 609.423L169.064 608.463L167.755 606.978L167.406 606.716L163.915 604.795L162.867 604.01L161.907 602.962L161.384 602.525L160.249 601.39L160.074 601.215L129.875 605.581L129.613 604.097L129.525 601.827V601.565L129.438 601.303L129.351 601.041L129.176 600.604L129.002 600.342L124.899 595.627L124.725 595.191L124.463 594.754L123.939 593.008L123.765 592.571L123.59 592.135L123.416 591.873L123.154 591.611L122.717 591.261H122.281H121.845L119.837 592.658L119.226 593.532L118.79 593.881L112.942 597.548V597.635H112.854L112.418 597.897L108.839 601.215L108.403 601.827L108.316 602.089V602.351L108.141 603.835V604.184L108.054 604.359L107.967 604.621L107.879 604.708L107.53 604.883L107.356 604.97H106.657L105.785 604.795L102.642 603.922L102.119 603.66L101.857 603.311L101.508 602.962L100.286 602.176L100.199 602.001L100.024 601.827L99.5875 600.692L99.413 600.517L99.2384 600.342L98.8893 599.993L98.7147 599.906L98.191 599.731L96.0089 599.469L95.6598 599.382L95.398 599.207L95.2234 599.12L95.0488 598.945L94.9616 598.771L94.787 598.509V598.247L94.6124 596.762L94.5251 596.588L94.4379 596.326L94.2633 596.151L94.0887 595.976L93.9142 595.802L92.6922 595.191L92.4304 595.016L92.1685 594.754L91.5575 593.968L90.5974 592.309L90.4229 592.135L90.2483 591.96L90.0737 591.873L89.8119 591.785L89.4628 592.047L89.1136 592.484L88.5899 593.794L88.4154 594.492L88.3281 594.929L88.7645 596.5L88.8518 597.024L88.7645 597.374V597.548V597.635L88.5899 598.159L88.4154 598.596L87.7171 599.906L87.2807 601.041L86.146 601.565L81.1709 603.224L79.338 604.184L78.9016 604.359L69.3878 605.145L69.2132 605.232L67.4676 606.804L66.682 607.415L66.2456 607.59L65.5474 607.851L64.8491 607.939H62.5798L61.7942 607.677L61.3578 607.153L60.6595 605.843L60.1358 605.407L59.874 605.145L57.2555 604.097L57.4301 603.136L57.5174 602.438L57.4301 600.255L57.5174 599.12V598.509V598.159L57.4301 597.897L57.1682 597.635L56.7318 597.374L55.1607 597.199L53.7642 597.112L51.0585 596.588H50.7093L50.4475 596.675L50.0111 596.85L49.8365 597.024L49.7492 597.199L49.662 597.374L49.5747 597.548V597.635L49.4001 598.159L49.2255 598.683L49.051 598.858L48.9637 599.033L48.7018 598.945L48.44 598.596L47.6545 596.937L47.5672 596.413L47.4799 596.151V595.54V594.929L47.6545 594.143L47.829 593.27L48.0036 592.92L48.1781 592.658L48.6146 591.873L49.2255 591.174L49.3128 590.912V590.65L48.0909 589.864L43.1158 587.245L42.1557 584.887L41.5447 583.141V581.22L42.1557 579.299L43.3776 577.815L45.2978 576.33L46.3452 575.195L46.6943 573.885L46.6071 573.187L46.3452 571.703L48.5273 570.393L52.1931 567.249L54.1134 562.709L52.5423 559.828L53.8515 557.907L56.6446 557.033H59.4376L61.7069 555.986L64.2381 554.414L66.0711 552.231L66.4202 549.524L65.3728 547.953L63.3653 546.468L61.1832 545.333L59.4376 544.896L56.7318 543.325L54.0261 542.801L52.455 541.84L52.9787 538.784L53.4151 538.26L54.9862 537.649L55.5099 537.125L55.859 535.728L55.5099 533.109L55.6844 531.974L56.5573 530.664L58.7393 528.656L59.4376 526.997L61.096 524.552L65.0237 521.146L66.682 518.09L67.8167 516.519L69.7369 515.733L70.2606 515.646L72.0063 515.209L74.0138 514.248L78.2906 511.629L79.0761 512.066L79.4253 512.502L80.6472 513.987L81.6073 514.598H84.0512L84.3131 514.423L85.9715 513.375L87.6298 512.066L89.4628 511.367L91.2084 511.716L91.5575 511.804L97.6673 514.772L102.206 515.908L104.475 515.471L105.523 514.074L105.872 513.637L105.697 510.669L103.603 509.359L98.9766 508.573L95.398 505.866L94.6997 504.993L93.9142 503.596L93.6523 503.072L96.2708 497.833L97.8419 495.301L99.7621 492.943L104.475 488.752L108.49 483.688L111.022 482.465L112.331 482.553L112.505 482.64L114.949 483.513H115.473L116.52 483.426L118.528 482.465L119.139 481.156L119.401 479.409L120.099 477.401L122.456 474.432L127.78 469.892L130.486 465.177L133.89 461.51L133.802 461.335L135.81 460.724L136.246 460.636L139.126 458.977L141.047 458.541H143.84L144.451 458.628L146.546 459.85L155.012 460.986H156.059L156.321 460.898L160.511 458.541L164.089 457.406L165.049 457.318H165.573L166.271 457.93L167.755 460.112L167.842 460.374L168.192 460.898L170.897 464.216L172.556 465.875L174.301 468.582L176.396 470.765L177.094 471.726L177.88 473.297L179.713 476.091L180.411 477.401L180.498 477.576L181.371 478.973L181.633 479.409L182.768 481.418L182.942 481.767L183.117 482.203L183.466 482.815L183.641 482.989L184.164 483.426L184.339 483.601L184.688 484.037L185.212 484.998L189.314 488.752L190.623 489.713L191.321 490.149H191.409H191.496L203.105 496.96L204.327 497.396L204.85 497.484H206.159L208.516 497.222L210.873 498.008L211.571 498.532L211.658 498.706L211.746 498.968L211.833 499.23L211.92 499.492L212.706 501.326L213.055 501.937L213.142 502.112L219.339 512.328L220.125 513.026L221.958 514.248L231.559 523.853L233.566 525.163L234.701 526.036L246.309 536.776L247.008 537.998L248.142 540.793L248.317 541.666L248.491 542.015L248.579 542.277L249.19 544.198L249.626 545.071L250.324 546.992L258.354 557.907L266.472 564.193L269.788 566.114L271.01 566.987L272.843 567.773L277.295 568.908L278.429 569.345L280.437 569.694L280.699 569.782L280.873 569.869L282.008 570.393L282.793 570.829L285.761 573.274L289.427 575.544L337.956 614.488V614.575ZM99.5875 567.511L100.024 565.765L102.73 562.971L103.864 559.828L103.603 557.208L103.69 555.636L101.77 553.017L98.4529 552.755L91.8194 554.676L88.2408 554.851L83.7021 557.383L84.5749 560.002L86.4952 559.74L89.2882 561.137L86.757 563.844L87.368 565.241L90.0737 563.495L97.3182 567.162L99.5875 567.511Z" fill="white" stroke="#D9D9D9" stroke-width="2" stroke-linecap="round" stroke-linejoin="round"/>
<path d="M694.854 264.699L681.5 262.778L658.021 262.254L648.943 260.333L644.667 258.761L637.248 257.102L635.066 256.142L631.225 253.872L541.935 166.206L527.01 150.926L518.107 136.082L515.489 130.319L515.314 128.398L515.139 127.787L514.965 127.35L514.179 126.128L512.87 124.818L505.451 120.54L494.541 115.999L493.93 115.912L493.319 115.825L492.795 115.912L492.359 116.087L490.438 116.785L489.478 117.047L487.296 117.309L485.987 117.222L484.765 116.873L483.805 116.436L482.147 114.952L476.124 107.18L475.077 104.736L472.284 96.3532L510.863 88.9314L536.436 79.2393L548.307 72.0793L552.584 70.6823L557.035 69.8091L561.486 67.7135L570.04 61.9506L585.838 51.3854L588.195 49.8137L590.726 48.8532L593.345 48.3293L596.05 48.1547L601.549 46.583L617.522 37.6768L623.37 35.4065L645.714 32.0885L674.168 37.8514L679.492 40.0343L682.111 40.7328L715.278 39.1611L765.029 27.3734L778.471 24.2301L783.62 20.9994L792.61 12.5297L798.633 4.58391L800.379 3.53612L802.561 1.78979L803.87 3.4488L804.044 5.19512L803.87 6.6795L803.957 7.29071L805.616 7.63998L809.194 9.3863L809.892 9.03704L810.678 8.25119L811.463 7.55266L812.162 7.81461L812.685 8.60046L813.296 10.0848L813.82 10.8707L817.835 14.1887L818.708 14.6253L819.493 16.4589L817.311 24.8413L818.708 26.7622L819.668 27.6354L819.843 29.8183L819.93 34.0095L820.715 35.7558L821.588 37.3275L822.286 38.9865V41.1694L818.621 44.0508L810.94 51.2981V51.3854L798.633 64.5701L774.805 90.1538L758.745 107.355L755.603 110.062L752.286 111.634L715.278 119.579L707.597 120.802L704.019 122.461L701.662 125.779L691.101 146.473L690.141 150.402L686.3 187.511V189.956L686.824 192.488L689.879 199.736L699.044 219.818L700.353 224.533L700.964 229.423L701.4 249.593L700.789 254.221L698.869 258.587L694.854 264.699Z" fill="white" stroke="#D9D9D9" stroke-width="2" stroke-linecap="round" stroke-linejoin="round"/>
<path d="M376.098 88.582L379.502 92.2493L386.834 96.0912L395.213 97.139L414.59 96.2658L417.208 95.48L423.405 95.0434L441.735 101.243L448.194 100.981L472.284 96.3532L475.077 104.736L476.124 107.18L482.147 114.952L483.805 116.436L484.765 116.872L485.987 117.222L487.296 117.309L489.478 117.047L490.438 116.785L492.359 116.087L492.795 115.912L493.319 115.825L493.93 115.912L494.541 115.999L505.451 120.54L512.87 124.818L514.179 126.128L514.965 127.35L515.139 127.787L515.314 128.398L515.488 130.319L507.72 165.246L496.112 218.858L494.803 227.939V229.51L495.675 229.772L499.079 232.13L500.039 232.566L499.079 234.575L448.456 309.055L381.946 291.068L346.859 288.361L336.298 289.584L334.465 286.79L333.068 285.305L328.355 281.725L305.399 257.277L303.654 255.007L303.392 254.483L303.13 253.784L302.868 252.824L302.781 252.125V251.427L303.479 246.188L306.534 232.828L309.851 224.621L310.898 222.874L311.509 222.088L311.858 221.739L316.397 215.103L318.754 212.746L319.365 211.96L319.627 211.523L320.499 209.428L321.023 207.681L321.198 207.332L321.459 206.633L321.634 205.935L321.809 204.363L321.634 203.577L321.198 202.879L316.484 198.862L316.397 198.775L314.826 196.156L313.255 194.06L311.597 192.314L310.462 190.829L309.414 188.734L307.931 184.368L307.494 182.01L307.32 180.177L307.494 179.129L307.756 178.081L308.193 177.033L310.811 173.017L312.295 169.524L313.429 167.429L314.651 165.595L315.961 164.198L316.659 163.674L318.666 162.539L323.554 160.007L326.871 159.221L331.322 159.046L351.048 155.728L360.737 150.315L368.592 144.814L369.989 143.417L371.123 142.281L375.662 135.383L377.058 132.415L377.844 129.883L378.717 124.818V124.731L379.677 120.452L380.201 116.261L380.375 106.307L380.288 105.696L380.113 105.259L380.026 104.736L379.677 104.386L379.328 104.037L378.804 103.95L378.28 103.862L377.757 104.037L376.971 104.474L374.091 107.006L372.869 107.879L371.909 108.228H371.385H370.861L370.425 108.054L370.076 107.704L369.639 106.918L369.29 105.696L368.679 103.077L368.592 101.854L368.679 100.981L369.116 100.719L369.552 100.544L375.575 99.7585L376.186 99.4092L376.709 98.798L377.408 97.4883L377.669 96.6151V95.8293V95.3054L376.098 88.582Z" fill="white" stroke="#D9D9D9" stroke-width="2" stroke-linecap="round" stroke-linejoin="round"/>
<path d="M376.099 88.5821L377.67 95.3054V95.8293V96.6152L377.408 97.4883L376.71 98.7981L376.186 99.4093L375.575 99.7585L369.552 100.544L369.116 100.719L368.68 100.981L368.592 101.854L368.68 103.077L369.291 105.696L369.64 106.918L370.076 107.704L370.425 108.054L370.862 108.228H371.385H371.909L372.869 107.879L374.091 107.006L376.971 104.474L377.757 104.037L378.281 103.862L378.804 103.95L379.328 104.037L379.677 104.386L380.026 104.736L380.114 105.259L380.288 105.696L380.375 106.307L380.201 116.261L379.677 120.452L378.717 124.731V124.818L377.844 129.883L377.059 132.415L375.662 135.384L371.123 142.282L369.989 143.417L368.592 144.814L360.737 150.315L351.048 155.728L331.323 159.046L326.871 159.221L323.554 160.007L318.667 162.539L316.659 163.674L315.961 164.198L314.652 165.595L313.43 167.429L312.295 169.524L310.811 173.017L308.193 177.033L307.756 178.081L307.495 179.129L307.32 180.177L307.495 182.01L307.931 184.368L309.415 188.734L310.462 190.829L311.597 192.314L313.255 194.06L314.826 196.156L316.397 198.775L316.485 198.862L321.198 202.879L321.634 203.577L321.809 204.363L321.634 205.935L321.46 206.634L321.198 207.332L321.023 207.681L320.5 209.428L319.627 211.523L319.365 211.96L318.754 212.746L316.397 215.103L311.859 221.739L311.509 222.089L310.899 222.874L309.851 224.621L306.534 232.828L303.48 246.188L302.781 251.427V252.125L302.869 252.824L303.13 253.784L303.392 254.483L303.654 255.007L305.4 257.277L328.355 281.725L277.469 281.9L267.432 280.416L262.02 278.844L260.013 277.884L252.157 272.383L252.07 272.295L249.801 270.724L230.162 272.121L223.267 272.033L222.394 271.771L221.347 271.248L217.07 268.366L206.858 264.786L201.883 262.778L201.272 262.341L199.526 260.508L198.741 259.984L198.13 259.634L197.082 259.285L196.471 258.936L192.718 254.396L192.107 253.435L191.671 250.816L191.322 249.855L190.536 248.72L189.489 246.537L187.743 241.036L188.354 239.988L189.052 239.377L190.449 238.766L190.798 238.504L191.583 237.893L192.107 237.282L192.543 236.758L192.98 235.884L193.154 235.361L193.242 234.749V234.138L193.154 233.614L192.805 233.003L192.194 232.392L188.703 229.947L186.346 227.589L184.863 226.629L183.03 226.367L182.419 226.192L181.982 226.018L181.197 225.145L180.237 223.748L174.214 212.833L167.843 203.403L167.668 202.879L167.581 202.268V201.045L167.319 196.418L167.144 195.282L166.882 194.322L166.184 193.623L165.049 192.838L155.012 188.123L153.965 187.511L152.917 186.464L151.783 185.241L150.91 183.495L148.466 180.177L149.95 177.732L153.877 174.414L154.576 173.715L155.099 172.842L155.71 172.144L155.972 171.969L156.147 171.794L157.369 171.096L157.718 170.747L158.591 169.524L160.947 167.167L161.558 166.381L162.082 165.42L162.256 164.896L162.431 164.285L162.344 163.499L161.907 162.539L158.765 158.522L155.099 155.03L154.488 153.72L154.226 151.45L154.052 150.926L153.877 150.489L153.615 150.14L153.179 149.791L152.568 149.703L151.783 149.878L149.251 151.799L148.64 152.061L144.8 151.974L140.698 152.847L139.214 153.72V153.633L137.817 152.061L135.897 151.275L131.969 150.839L130.747 149.703L131.271 149.616L131.969 148.306L132.668 146.123L132.755 144.814L132.58 143.679L132.231 142.631L131.708 141.67L131.097 141.234L129.176 140.361L128.391 139.662L127.78 138.527L125.511 130.494L125.161 128.049L125.685 125.779L129.264 120.103L129.787 113.642L129.7 107.093L131.358 100.806L132.755 97.3137L133.191 94.3449L133.279 91.4635L133.802 88.2328L135.286 85.2641L137.206 82.6446L138.516 79.7631L138.166 76.0959L139.214 76.0085L140.349 76.1832L140.523 76.2705L162.431 83.867L169.937 84.3909L172.294 84.9148L174.651 85.8753L176.92 87.185L178.753 88.9313L182.331 92.2494L183.292 94.1703L183.379 97.3137L182.331 102.029L182.855 103.775L185.037 105.783L187.394 107.093L188.528 106.744L189.489 105.347L191.322 103.513L193.504 102.465L195.511 102.64L197.431 103.251L199.701 103.513L207.294 101.592L209.913 101.33L229.289 104.91L234.264 104.998L243.342 99.1473L251.808 93.6464L259.053 90.4157L278.866 86.1372L297.981 77.3183L301.297 76.4451L303.48 75.0481L315.001 67.7135L323.031 64.5701L327.046 64.1335L334.901 65.094L357.595 71.992L363.443 75.2227L376.099 88.5821Z" fill="white" stroke="#D9D9D9" stroke-width="2" stroke-linecap="round" stroke-linejoin="round"/>
<path d="M80.3853 225.057L80.6471 224.97L81.9564 220.691L82.6546 210.301L85.2731 206.022L89.1135 204.625L91.9938 205.411L93.9141 204.975L94.8742 199.736H94.9614L97.3181 198.775L102.031 200.609L104.563 199.736L104.213 195.544L104.563 174.239L104.824 172.056L105.523 170.921L106.483 169.961L106.657 168.651L104.912 166.643L106.308 165.246L107.792 167.079L109.276 168.127L110.934 168.651L114.251 169.088L114.949 169.35H115.56L116.608 168.913L117.131 168.04L117.306 166.992L117.742 166.031L119.139 165.595L121.321 165.246L130.311 166.643H132.58L141.047 165.071L141.745 163.849L141.658 160.443L141.221 158.348L140.348 155.99L139.214 153.72L140.697 152.847L144.8 151.974L148.64 152.061L149.251 151.799L151.782 149.878L152.568 149.703L153.179 149.791L153.615 150.14L153.877 150.489L154.052 150.926L154.226 151.45L154.488 153.72L155.099 155.03L158.765 158.522L161.907 162.539L162.344 163.499L162.431 164.285L162.256 164.896L162.082 165.42L161.558 166.381L160.947 167.167L158.59 169.524L157.718 170.747L157.368 171.096L156.146 171.794L155.972 171.969L155.71 172.144L155.099 172.842L154.575 173.715L153.877 174.414L149.949 177.732L148.466 180.177L150.91 183.495L151.782 185.241L152.917 186.463L153.964 187.511L155.012 188.122L165.049 192.838L166.184 193.623L166.882 194.322L167.144 195.282L167.319 196.418L167.58 201.045V202.268L167.668 202.879L167.842 203.403L174.214 212.833L180.236 223.747L181.197 225.145L181.982 226.018L182.419 226.192L183.03 226.367L184.862 226.629L186.346 227.589L188.703 229.947L192.194 232.392L192.805 233.003L193.154 233.614L193.242 234.138V234.749L193.154 235.361L192.98 235.884L192.543 236.758L192.107 237.281L191.583 237.893L190.798 238.504L190.449 238.766L189.052 239.377L188.354 239.988L187.743 241.036L189.488 246.537L190.536 248.72L191.321 249.855L191.67 250.815L192.107 253.435L192.718 254.395L196.471 258.936L197.082 259.285L198.129 259.634L198.74 259.984L199.526 260.508L201.272 262.341L201.883 262.778L206.858 264.786L204.676 266.096L204.326 266.532L203.977 267.231L202.668 270.287L199.7 275.526L199.002 276.486L198.217 277.01L195.685 278.058L194.202 279.019L193.503 279.717L192.892 280.852L190.536 285.829L190.274 286.877L190.187 287.488V288.012L190.361 288.536L190.71 288.885L191.059 289.147L191.583 289.322L192.107 289.409H192.718L193.154 289.235L193.591 288.973L193.94 288.623L194.202 288.274L194.9 286.79L195.249 286.441L195.511 286.091L195.86 285.829L196.384 285.742L196.82 285.829L197.257 286.091L197.606 286.441L197.78 286.79L197.955 287.314L198.129 288.361L198.042 294.474L197.868 294.91H197.431L196.995 294.736L196.471 294.648L195.947 294.561L195.424 294.648L194.987 294.823L194.638 295.085L194.202 295.434L193.591 296.307L192.543 297.966L192.194 298.316L191.67 298.577L190.972 298.839L190.361 298.927L187.917 298.839L185.212 299.189H184.077L183.553 299.014L183.03 298.839L182.593 298.577L182.244 298.228L181.982 297.792L181.895 297.355V295.521L181.808 294.997L181.371 292.902V292.378V291.767L181.458 291.243L182.593 288.798L182.768 288.187L182.855 287.663V287.052L182.768 285.917L182.68 285.393L182.506 284.869L182.331 284.432L182.069 283.996L181.808 283.646L181.371 283.384L180.76 283.21L180.411 283.384L180.062 283.821L179.102 285.655L178.665 286.179L176.047 288.711L173.952 291.941L173.254 292.465L172.468 292.727L171.595 292.815L170.374 293.077H169.675L169.152 292.902L168.89 292.465L168.628 292.116L168.366 291.767L167.057 290.894L166.708 290.632L166.359 290.282L165.835 289.409L165.66 288.973L165.224 288.1L161.645 284.869L161.209 284.694L160.685 284.52H160.161H159.638L145.236 288.449L139.126 288.274L131.096 286.004L129.962 285.829L127.692 286.004L126.47 285.917L125.859 285.829L125.423 285.567L124.987 285.305L124.725 284.956L124.463 284.52L124.288 284.083L123.939 283.122L123.503 282.249L123.241 281.9L122.805 281.638L120.71 280.59L119.924 280.241L119.401 280.328L115.211 282.424L112.68 281.638L111.894 280.765L111.283 278.233L108.665 272.383V272.295L108.839 271.859L109.014 271.509L109.276 270.898L109.538 270.112L108.49 260.246L108.752 257.626L110.41 249.68L111.196 243.219L111.021 241.385L110.149 240.861L104.912 240.687L103.341 240.163L103.079 239.726L102.991 239.202L102.817 238.766L102.642 238.155L102.293 237.456L101.595 236.67L101.159 236.321L100.722 236.059H100.198L99.6747 236.234L99.2383 236.408L98.8019 236.67L97.4054 237.107L95.8343 237.281L94.9614 237.194L94.0013 236.845L93.5649 236.583L93.0412 236.146L92.7794 235.797L92.2557 234.837L95.2233 232.741L96.0961 231.606L96.2707 230.995V230.384L96.0961 229.86L95.6597 229.248L95.136 228.986L94.6123 228.812L86.495 229.161L85.4477 229.423L84.4875 229.772L83.7893 229.947H82.9165L81.1708 229.86L80.298 229.51L79.8616 229.074L79.687 228.637V228.113L79.7743 227.502L79.9489 226.978L80.1234 226.629L80.3853 225.756L80.4726 225.581L80.3853 225.057Z" fill="white" stroke="#D9D9D9" stroke-width="2" stroke-linecap="round" stroke-linejoin="round"/>
<path d="M80.3853 225.057L80.4726 225.581L80.3853 225.756L80.1235 226.629L79.9489 226.978L79.7744 227.502L79.6871 228.113V228.637L79.8616 229.074L80.2981 229.51L81.1709 229.86L82.9165 229.947H83.7894L84.4876 229.772L85.4477 229.423L86.4951 229.161L94.6124 228.812L95.1361 228.987L95.6598 229.249L96.0962 229.86L96.2708 230.384V230.995L96.0962 231.606L95.2234 232.741L92.2558 234.837L90.3355 236.496L89.8119 237.806L89.55 241.473L89.3754 242.433L89.0263 243.044L87.1934 244.354L86.0587 245.577L85.7096 246.362L85.6223 246.974L85.7969 247.41L87.1934 249.331L87.6298 250.204L87.9789 251.165L88.2408 252.824L88.5899 257.364L88.1535 267.144L85.7969 283.297L85.8841 283.908L86.6697 286.703L88.5899 292.378L91.7321 307.135L91.9939 312.81L87.3679 310.54L85.7969 310.365L84.1385 311.413L83.2657 311.85L82.8293 311.937L64.8491 313.421L64.0635 313.159L60.5722 310.191L58.7393 308.968L53.6769 307.309L53.5896 307.222L51.7567 303.38L53.3278 298.49L52.8041 296.045L51.9313 286.528L52.1931 284.432L50.9711 283.21L45.2105 275.439L42.7666 274.216L41.5446 273.343L41.1082 271.859L40.1481 271.073L38.2279 271.335L36.395 272.033L35.784 272.383L34.4748 271.772L34.6493 270.113L35.2603 268.104L35.3476 266.358L34.6493 265.572L30.4598 263.302L30.7216 262.603L30.8962 261.119L31.2453 260.333H30.4598L28.8887 261.206V260.333L31.2453 259.46L33.6019 257.976L35.4349 255.793L36.1331 253.173L35.8713 251.601L34.8239 249.593L34.562 247.76L35.173 246.712L37.9661 245.751L42.592 236.845L42.7666 236.059V232.654L42.2429 229.772L41.0209 226.367L39.3626 223.136L37.7915 221.041L43.5521 221.39L46.4325 220.692L47.6544 218.509L48.1781 215.627L51.233 210.999L52.3677 211.349L54.7243 210.912L57.1682 210.039L59.4375 209.69L61.0086 211.349V213.27L60.6595 215.191L60.9213 216.937L62.3179 218.159L64.1508 218.596L67.9039 218.683L71.3952 220.342L78.3778 225.407L80.3853 225.057Z" fill="white" stroke="#D9D9D9" stroke-width="2" stroke-linecap="round" stroke-linejoin="round"/>
<path d="M240.112 677.268L230.598 683.293L210.174 696.477L196.995 704.947L178.753 716.909L159.551 730.007L157.979 730.618L156.321 730.531L148.728 728.522L146.109 728.435L144.102 729.657L139.737 726.339L123.416 724.331V723.458L123.852 719.441L123.939 719.092L123.59 712.282L123.677 711.67L124.55 708.876L124.638 708.352L124.725 707.13L124.55 706.693L124.288 705.995L123.066 704.161L121.495 702.24L120.884 701.367L120.797 701.018L120.884 700.581L121.583 699.097L122.368 698.049L122.455 697.874L122.281 697.001L120.884 694.818L118.877 694.993H118.615L118.353 694.906L118.004 694.731L117.48 694.382L117.219 693.945L116.695 693.421L116.433 693.334L116.171 693.247H115.909L113.64 693.683L111.807 693.596L109.8 693.334L109.625 693.072L109.538 692.635L109.625 691.762L109.8 691.238L110.149 690.19L110.323 689.667L110.236 689.23L109.538 687.658L109.363 686.96L109.538 686.261L109.8 685.912L110.061 685.737L111.545 685.301L111.982 685.126L112.156 684.952L112.331 684.864L112.942 684.078L113.116 683.904L113.553 683.642L114.425 683.205L114.775 682.943L115.036 682.594L115.211 682.419L115.298 682.245L115.56 681.197V680.586L115.298 680.062L114.687 679.451L113.204 678.403L112.418 677.966L111.807 677.792L109.45 677.53L108.927 677.355L107.094 676.656L106.832 676.569L106.57 676.482H105.959L105.435 676.395L105.086 676.22L104.912 676.045L104.737 675.783L104.388 675.172L104.301 674.823L104.213 674.474L104.039 673.6V672.989L104.213 672.029L104.475 671.33L105.697 670.108L104.824 660.678V658.407L104.999 658.058L105.086 657.971L105.174 657.447L104.737 655.963L102.642 650.898L102.381 649.414L102.031 648.453L101.944 647.58V647.231L102.031 646.969L102.119 646.532L103.166 644.524V644.262L103.253 644V643.738L103.166 643.476L103.079 643.214L102.991 642.952L102.73 642.254L102.555 641.817L102.468 641.468L102.555 641.206L102.73 640.77L103.166 640.333L105.086 638.936L106.483 638.063L108.141 636.491L111.807 633.697L112.767 633.26L113.989 632.911L118.79 632.562L125.86 633.086L126.383 632.998L126.645 632.911L126.82 632.649V632.3L126.645 631.601L126.034 630.466L125.86 629.942L125.772 629.68V629.418L125.598 626.013L125.423 625.577L125.336 625.315L125.161 625.14L124.987 624.965L124.812 624.878L124.55 624.791H124.288H123.677L123.416 624.878L121.583 625.577H121.408H121.234L120.972 625.489L120.797 625.402L120.535 625.315L120.448 625.14L120.186 624.791L120.012 624.529V624.267L119.924 622.084L119.837 621.473L119.75 620.949L119.575 620.425L118.79 618.679L118.44 617.718L118.179 616.67V616.321V615.884L118.353 615.099L118.44 614.225V613.876L118.353 613.352L118.091 612.654L118.004 612.304V612.043V611.606L118.179 610.995L118.353 610.296L118.702 609.598L119.313 608.899L120.012 608.288L122.019 606.716L122.543 606.629H123.328L126.645 606.978L127.605 606.804L129.874 605.581L160.074 601.215L160.249 601.39L161.383 602.525L161.907 602.962L162.867 604.009L163.915 604.795L167.406 606.716L167.755 606.978L169.064 608.463L169.588 609.423L169.675 609.86L169.937 611.606L170.199 612.043L170.461 612.392L174.65 616.67L174.912 617.02L175.087 617.281L175.261 617.805L175.523 619.028L175.611 620.25L175.698 620.861L175.872 621.385L175.96 621.56L176.047 621.822L176.396 622.084L178.84 623.918L179.276 624.179L181.284 624.441H181.982L189.75 626.188L190.361 626.537L190.536 626.624L190.885 626.974L191.496 627.41L192.892 628.283L193.242 628.545L193.416 628.72L193.503 628.895L193.678 629.157V629.331L193.765 629.593V629.855V630.204L193.678 630.728V631.514L193.765 631.689V631.863L194.027 632.3L194.289 632.736L194.464 632.998L194.638 633.173V633.26L194.9 633.348L195.162 633.697L195.336 633.872L195.511 634.308L195.598 634.483L195.773 634.745V634.919L195.947 635.094L196.209 635.356L196.471 635.618L196.646 635.967L196.907 636.84L202.93 640.333L204.501 641.031H204.763L205.199 640.857L205.374 640.682L205.548 640.595L205.898 640.246L206.421 640.071L209.913 640.246L211.745 640.857L212.618 641.73L213.055 642.516L213.317 643.04L213.491 643.476L213.84 644.873L214.364 651.335L214.539 651.946V652.121L214.626 652.208L214.975 652.732L231.122 669.147L236.97 673.426L238.018 674.561L240.025 677.18L240.112 677.268Z" fill="white" stroke="#D9D9D9" stroke-width="2" stroke-linecap="round" stroke-linejoin="round"/>
<path d="M43.5521 656.574L44.4249 655.264L50.7093 649.414L54.2879 646.533L54.8988 645.659L54.9861 645.398V644.786L54.637 641.992L54.4624 641.119L54.2879 640.595L54.026 640.246L53.8514 640.071L53.7642 639.809L53.8514 639.46L54.026 639.111L54.4624 638.674L54.8988 638.5L55.248 638.412L57.3427 638.325L57.9537 638.412L58.1283 638.5L58.3029 638.587L58.4774 638.849L58.5647 639.023L58.652 639.547L58.7393 639.809L58.9138 639.984L59.0011 640.159L59.263 640.333L59.4375 640.42L59.6121 640.508L59.8739 640.595H60.0485L60.2231 640.508L60.3104 640.246V639.722L60.1358 638.936L59.3502 636.404L59.1757 635.88L58.652 635.356L58.1283 634.57L57.5173 633.261V633.173L56.1208 631.078L55.5098 629.768L55.5971 628.633L57.0809 619.727L57.1682 619.552L57.9537 617.718L59.4375 615.273V614.924L59.263 614.313L58.652 613.265L58.3029 612.741L58.041 612.479L56.3826 611.17L56.2081 610.995L56.2954 609.511L57.2555 604.097L59.8739 605.145L60.1358 605.407L60.6595 605.843L61.3577 607.153L61.7942 607.677L62.5797 607.939H64.849L65.5473 607.852L66.2456 607.59L66.682 607.415L67.4675 606.804L69.2132 605.232L69.3877 605.145L78.9015 604.359L79.3379 604.184L81.1709 603.224L86.146 601.565L87.2806 601.041L87.7171 599.906L88.4153 598.596L88.5899 598.159L88.7644 597.636V597.548V597.374L88.8517 597.024L88.7644 596.5L88.328 594.929L88.4153 594.492L88.5899 593.794L89.1136 592.484L89.4627 592.047L89.8118 591.785L90.0737 591.873L90.2482 591.96L90.4228 592.135L90.5974 592.309L91.5575 593.968L92.1685 594.754L92.4303 595.016L92.6922 595.191L93.9141 595.802L94.0887 595.977L94.2632 596.151L94.4378 596.326L94.5251 596.588L94.6124 596.762L94.7869 598.247V598.509L94.9615 598.771L95.0488 598.945L95.2233 599.12L95.3979 599.207L95.6598 599.382L96.0089 599.469L98.191 599.731L98.7146 599.906L98.8892 599.993L99.2383 600.342L99.4129 600.517L99.5875 600.692L100.024 601.827L100.198 602.001L100.286 602.176L101.508 602.962L101.857 603.311L102.119 603.66L102.642 603.922L105.785 604.795L106.657 604.97H107.356L107.53 604.883L107.879 604.708L107.967 604.621L108.054 604.359L108.141 604.184V603.835L108.316 602.351V602.089L108.403 601.827L108.839 601.216L112.418 597.898L112.854 597.636H112.942V597.548L118.79 593.881L119.226 593.532L119.837 592.659L121.845 591.261H122.281H122.717L123.154 591.611L123.416 591.873L123.59 592.135L123.765 592.571L123.939 593.008L124.463 594.754L124.725 595.191L124.899 595.627L129.002 600.342L129.176 600.604L129.351 601.041L129.438 601.303L129.525 601.565V601.827L129.613 604.097L129.874 605.581L127.605 606.804L126.645 606.978L123.328 606.629H122.543L122.019 606.716L120.012 608.288L119.313 608.899L118.702 609.598L118.353 610.296L118.179 610.995L118.004 611.606V612.043V612.305L118.091 612.654L118.353 613.352L118.44 613.876V614.226L118.353 615.099L118.179 615.885V616.321V616.671L118.44 617.718L118.79 618.679L119.575 620.425L119.75 620.949L119.837 621.473L119.924 622.084L120.012 624.267V624.529L120.186 624.791L120.448 625.14L120.535 625.315L120.797 625.402L120.972 625.489L121.234 625.577H121.408H121.583L123.416 624.878L123.677 624.791H124.288H124.55L124.812 624.878L124.987 624.966L125.161 625.14L125.336 625.315L125.423 625.577L125.598 626.013L125.772 629.419V629.681L125.86 629.943L126.034 630.466L126.645 631.602L126.82 632.3V632.649L126.645 632.911L126.383 632.999L125.86 633.086L118.79 632.562L113.989 632.911L112.767 633.261L111.807 633.697L108.141 636.491L106.483 638.063L105.086 638.936L103.166 640.333L102.73 640.77L102.555 641.206L102.468 641.468L102.555 641.818L102.73 642.254L102.991 642.953L103.079 643.215L103.166 643.477L103.253 643.739V644L103.166 644.262V644.524L102.119 646.533L102.031 646.969L101.944 647.231V647.58L102.031 648.454L102.381 649.414L102.642 650.898L104.737 655.963L105.174 657.447L105.086 657.971L104.999 658.058L104.824 658.408V660.678L105.697 670.108L104.475 671.33L104.213 672.029L104.039 672.989V673.601L104.213 674.474L104.301 674.823L104.388 675.172L104.737 675.784L104.912 676.046L105.086 676.22L105.435 676.395L105.959 676.482H106.57L106.832 676.569L107.094 676.657L108.927 677.355L109.45 677.53L111.807 677.792L112.418 677.966L113.204 678.403L114.687 679.451L115.298 680.062L115.56 680.586V681.197L115.298 682.245L115.211 682.42L115.036 682.594L114.775 682.943L114.425 683.205L113.553 683.642L113.116 683.904L112.942 684.079L112.331 684.864L112.156 684.952L111.982 685.126L111.545 685.301L110.061 685.738L109.8 685.912L109.538 686.261L109.363 686.96L109.538 687.659L110.236 689.23L110.323 689.667L110.149 690.191L109.8 691.239L109.625 691.762L109.538 692.636L109.625 693.072L109.8 693.334L111.807 693.596L113.64 693.683L115.909 693.247H116.171L116.433 693.334L116.695 693.421L117.219 693.945L117.48 694.382L118.004 694.731L118.353 694.906L118.615 694.993H118.877L120.884 694.819L122.281 697.001L122.455 697.875L122.368 698.049L121.583 699.097L120.884 700.581L120.797 701.018L120.884 701.367L121.495 702.24L123.066 704.161L124.288 705.995L124.55 706.693L124.725 707.13L124.638 708.353L124.55 708.876L123.677 711.671L123.59 712.282L123.939 719.092L123.852 719.442L123.416 723.458V724.331L119.139 723.807L117.131 722.585L110.41 721.974L108.054 721.188L106.308 720.227L95.8343 710.273L88.1535 704.947L84.313 701.018L83.0038 700.319L82.3928 700.494L80.9963 701.716L80.3853 701.978L79.6871 701.891L78.4651 701.367L77.6796 701.28L73.3154 701.891H71.5698L70.1733 701.804L69.7369 701.716V701.105L69.0386 699.446L63.7144 691.239L62.5797 688.881L62.4924 686.261L62.8415 683.817L62.2306 682.158L59.4375 681.983L57.7792 682.332L56.4699 681.896L55.4225 680.848L54.3751 679.538L54.8116 679.625L55.1607 679.014L55.3353 678.054L55.1607 677.181L54.7243 676.919H53.1532L52.6295 676.744L50.5347 674.648L49.4 673.95L36.5695 670.981L35.5221 669.584V669.497L34.9984 669.148L34.3875 669.06L36.9186 665.306L38.9261 664.083L39.799 663.559L40.5845 662.25L43.1157 658.582L43.7267 657.36L43.5521 656.574Z" fill="white" stroke="#D9D9D9" stroke-width="2" stroke-linecap="round" stroke-linejoin="round"/>
<path d="M559.479 479.759V479.671L492.271 382.75L472.633 354.635L472.109 353.761L471.585 352.452L471.498 350.88L472.284 342.498L472.196 341.101L471.76 339.791L464.254 323.637L460.501 318.835L448.456 309.056L499.079 234.575L500.039 232.567L499.079 232.13L495.675 229.772L494.803 229.511V227.939L496.112 218.858L507.72 165.246L515.489 130.319L518.107 136.082L527.01 150.926L541.935 166.206L631.225 253.872L635.066 256.142L637.248 257.102L644.667 258.761L648.943 260.333L658.021 262.254L681.5 262.778L694.854 264.699L689.268 273.169V273.256L688.133 277.622L687.086 291.942L682.111 309.929L680.976 318.835L681.063 322.24L681.674 346.252L682.722 371.661L682.46 375.503L681.413 379.083L660.988 418.812L656.624 428.329L653.919 432.171L650.427 434.442L621.188 442.387L603.731 452.953L590.464 460.986L577.285 468.932L564.105 476.965L559.479 479.759Z" fill="white" stroke="#D9D9D9" stroke-width="2" stroke-linecap="round" stroke-linejoin="round"/>
<path d="M43.1158 587.245L48.0909 589.865L49.3129 590.65V590.912L49.2256 591.174L48.6146 591.873L48.1782 592.659L48.0036 592.921L47.829 593.27L47.6545 594.143L47.4799 594.929V595.54V596.151L47.5672 596.413L47.6545 596.937L48.44 598.596L48.7019 598.945L48.9637 599.033L49.051 598.858L49.2256 598.684L49.4001 598.16L49.5747 597.636V597.548L49.662 597.374L49.7493 597.199L49.8365 597.025L50.0111 596.85L50.4475 596.675L50.7094 596.588H51.0585L53.7643 597.112L55.1608 597.199L56.7319 597.374L57.1683 597.636L57.4301 597.898L57.5174 598.16V598.509V599.12L57.4301 600.255L57.5174 602.438L57.4301 603.137L57.2556 604.097L56.2955 609.511L56.2082 610.995L56.3827 611.17L58.0411 612.479L58.3029 612.741L58.6521 613.265L59.2631 614.313L59.4376 614.924V615.274L57.9538 617.718L57.1683 619.552L57.081 619.727L55.5972 628.633L55.5099 629.768L56.1209 631.078L57.5174 633.173V633.261L58.1284 634.571L58.6521 635.356L59.1758 635.88L59.3503 636.404L60.1359 638.936L60.3104 639.722V640.246L60.2232 640.508L60.0486 640.595H59.874L59.6122 640.508L59.4376 640.421L59.2631 640.333L59.0012 640.159L58.9139 639.984L58.7394 639.809L58.6521 639.547L58.5648 639.024L58.4775 638.849L58.3029 638.587L58.1284 638.5L57.9538 638.412L57.3428 638.325L55.2481 638.412L54.8989 638.5L54.4625 638.674L54.0261 639.111L53.8515 639.46L53.7643 639.809L53.8515 640.071L54.0261 640.246L54.288 640.595L54.4625 641.119L54.6371 641.992L54.9862 644.786V645.398L54.8989 645.66L54.288 646.533L50.7094 649.414L44.425 655.264L43.5522 656.574V656.487L45.2106 650.287L48.7892 643.389L51.3203 640.77L52.7169 637.801L49.662 635.269L47.2181 634.309L45.647 621.648L46.1707 617.98L48.7892 617.631H50.273V616.671H49.5747L49.1383 616.059L48.9637 615.536L49.3129 615.012L49.9238 614.662L50.6221 614.313L51.1458 613.964L51.2331 613.44V611.956V609.598L50.7967 608.812L50.6221 608.026L49.9238 607.59L49.4874 607.502L48.7892 608.026H48.5273L48.0909 607.764L47.829 606.979V606.28L48.6146 605.494V604.97L48.1782 604.184L46.8689 602.525L45.9088 601.041L45.2979 599.382L44.5123 594.929L44.425 594.405L44.0759 593.968L43.4649 593.445H42.243L41.1083 593.357L40.41 593.27L40.3228 592.746L40.5846 592.484L41.1083 592.135L41.9811 591.786L42.7667 591.174L43.3776 589.952L43.4649 588.555L43.2031 587.332L43.1158 587.245Z" fill="white" stroke="#D9D9D9" stroke-width="2" stroke-linecap="round" stroke-linejoin="round"/>
<path d="M336.298 289.584L336.472 292.116L336.123 308.444L335.512 310.802L334.29 313.858L333.155 315.953L330.188 320.319L329.751 321.28L329.228 322.851L328.879 324.074L328.704 325.296V326.519L329.315 331.408L328.966 332.107L328.093 332.893L312.382 339.878L310.375 341.362L307.145 344.418L306.622 345.03V345.379L306.447 346.601L306.36 346.863L306.272 347.125L306.098 347.3L305.4 348.26L305.312 348.522L304.701 349.919L304.09 351.055L304.003 351.316L303.916 351.578V351.84L304.003 353.063V353.674L303.916 354.285L303.828 354.547L303.741 354.809L303.654 355.071L303.479 355.246L303.305 355.682L303.13 355.944L303.043 356.468L302.868 356.905L302.694 357.167L300.512 359.612L300.25 359.786L299.377 360.135L299.028 360.223L298.679 360.135L297.981 359.524L293.355 353.499L292.307 351.928L291.522 351.055L284.801 345.466L284.539 345.379L284.19 345.117L283.143 344.157L282.706 343.545L282.619 343.371L282.532 343.109L282.095 341.188L282.008 339.616L281.833 338.83L281.31 336.735L281.222 336.56L281.048 336.385L280.437 335.687L280.262 335.512L280.175 335.25L280 334.814L279.913 334.552L279.651 334.028L279.302 333.417L278.778 332.718L278.604 332.543L278.167 332.282L277.993 332.107L277.469 332.02L275.025 331.932L274.414 331.845L273.978 331.67L273.454 331.496L273.105 331.234L272.93 331.059L271.534 329.4L270.836 328.789L270.05 328.265L269.788 328.178L269.439 328.09H268.915L259.053 330.448L253.554 332.456L251.895 332.805H251.372H250.324L249.626 332.98L248.841 333.417L245.175 336.036L242.818 337.259L242.033 337.87L241.509 338.394L241.334 338.568L241.247 338.743L240.811 339.703L240.636 340.227L240.374 342.236V345.99L240.461 346.601L241.072 348.348L241.16 348.872V349.134V349.483L241.072 349.745L240.985 350.007L240.811 350.356L240.723 350.443L240.549 350.618L240.374 350.705L240.025 350.793H239.589L238.628 350.618L238.105 350.443L237.843 350.269L237.407 349.657L236.359 347.824L236.185 347.649L235.923 347.475L235.486 347.3L234.875 347.213L233.479 347.3L232.606 347.125H231.908L230.337 347.387H229.638L229.202 347.475L228.678 347.736L227.631 348.522L226.845 348.784L225.973 349.046L225.012 348.959L224.052 348.697L222.83 347.824L222.656 347.736L222.394 347.649L222.045 347.736L221.608 347.998L220.997 348.784L220.823 349.308L220.736 349.745V350.007V350.356L220.474 350.531L220.125 350.618L218.204 350.094H216.982L216.633 350.181L216.371 350.356L215.935 350.618L215.673 351.142L215.499 351.491L215.237 352.714L215.062 352.888L214.975 353.063L214.102 353.936L213.928 354.111L213.753 354.285L213.666 354.547L213.229 356.381L213.055 356.905L212.967 357.079L212.793 357.341L212.182 358.04L211.396 358.564L211.047 358.651H210.611L209.127 358.302L208.167 357.778L207.73 357.516L207.556 357.341L207.294 356.992L206.858 356.119L206.334 354.896L206.247 354.722L206.072 354.547L205.723 354.198L205.374 353.936L204.937 353.674L204.414 353.499H204.152H203.541L202.843 353.761L200.05 355.595L199.351 356.293L198.915 356.817L198.74 357.603L198.566 357.865H198.304L197.344 357.341L196.384 356.992L196.209 356.817L195.86 356.555L195.162 356.119L194.987 356.032L194.725 355.944H194.376H193.853L193.503 356.119L193.067 356.468L191.758 358.214L191.409 358.389L190.798 358.564L188.79 358.738L187.743 359.088L186.957 359.612L181.022 364.414L180.324 364.763L177.88 365.636L174.912 359L171.246 351.753L171.159 351.491L170.548 350.705L168.802 349.221L167.231 348.697L166.009 348.522L165.311 348.697L164.526 348.959L162.78 350.181L162.256 350.356L161.733 350.443H160.598L159.812 350.618L159.114 350.967L157.543 352.452L157.107 352.626L153.353 352.888L152.917 352.801H152.742H151.782L150.735 353.063H150.299H149.949L149.775 352.888L148.64 353.325L139.301 358.127L133.453 357.865L130.747 358.564L129.351 359.437L128.827 359.612L128.565 359.699L128.042 359.612L127.343 359.524L126.209 359L125.859 358.651L125.598 358.302V357.603V357.341L125.51 357.079L125.423 356.817L125.161 356.73L124.987 356.555L124.725 356.468H124.463L123.59 356.381L123.416 356.293L123.241 356.119L123.154 355.857V355.595L123.241 355.333L123.328 355.071L123.765 354.547L124.027 354.111L124.114 353.849L124.201 353.587V353.325L124.114 353.063L124.027 352.801L123.852 352.626L123.677 352.452L123.241 352.19L122.805 352.015H122.455H121.932L120.884 352.277L120.623 352.452L120.535 352.539L120.361 352.626L119.401 353.936L118.44 355.508L115.473 358.738V359.961L115.56 360.834L115.473 361.271L115.298 361.707L114.6 362.493L114.425 363.017L114.251 363.453V364.676V364.938L114.076 365.287L113.116 366.335L112.854 366.684L112.243 366.946L111.807 367.033L108.228 366.16L107.356 364.763L107.006 364.501L106.57 364.239L105.697 364.327H105.261L104.912 364.501L104.65 364.85L103.253 366.771L102.904 367.121L102.73 367.208L102.468 367.295L101.944 366.946L101.42 366.335L100.373 364.676L99.8493 364.152L99.5002 363.803H99.2383L98.9765 363.715L98.7146 363.628L98.6274 363.366L98.7146 363.017L99.5002 362.056L99.6747 361.794L100.024 361.62L99.9366 361.183L99.151 359.786L98.7146 358.826L98.1909 358.127L95.1361 355.944L94.6124 355.508L94.4378 355.071L94.0887 354.111L93.565 352.102L92.8667 350.356L92.1684 350.007L91.1211 349.745L86.4951 350.181L84.5749 350.094L78.9888 348.959L78.116 345.117L79.4252 344.331L80.5599 344.244L81.6945 344.506H82.2182L82.6547 344.418L83.0911 344.157L83.7893 343.545L84.2257 343.371L84.7494 343.196L85.7968 343.021L86.3205 342.847L87.0188 342.236L87.5425 342.061L89.2008 341.974L89.6373 341.712L90.4228 340.751L90.8592 340.402L91.732 339.791L92.0812 339.267L92.5176 338.394L93.4777 335.076V332.805L92.0812 315.604L91.9939 312.81L91.732 307.134L88.5899 292.378L86.6696 286.702L85.8841 283.908L85.7968 283.297L88.1535 267.144L88.5899 257.364L88.2407 252.824L87.9789 251.165L87.6298 250.204L87.1933 249.331L85.7968 247.41L85.6223 246.974L85.7095 246.362L86.0587 245.577L87.1933 244.354L89.0263 243.044L89.3754 242.433L89.55 241.473L89.8118 237.805L90.3355 236.496L92.2557 234.837L92.7794 235.797L93.0413 236.146L93.565 236.583L94.0014 236.845L94.9615 237.194L95.8343 237.282L97.4054 237.107L98.8019 236.67L99.2383 236.408L99.6747 236.234L100.198 236.059H100.722L101.159 236.321L101.595 236.67L102.293 237.456L102.642 238.155L102.817 238.766L102.991 239.202L103.079 239.726L103.341 240.163L104.912 240.687L110.149 240.861L111.021 241.385L111.196 243.219L110.41 249.68L108.752 257.626L108.49 260.246L109.538 270.112L109.276 270.898L109.014 271.509L108.839 271.859L108.665 272.295V272.383L111.283 278.233L111.894 280.765L112.68 281.638L115.211 282.424L119.401 280.328L119.924 280.241L120.71 280.59L122.805 281.638L123.241 281.9L123.503 282.249L123.939 283.123L124.288 284.083L124.463 284.52L124.725 284.956L124.987 285.305L125.423 285.567L125.859 285.829L126.47 285.917L127.692 286.004L129.962 285.829L131.096 286.004L139.126 288.274L145.236 288.449L159.638 284.52H160.161H160.685L161.209 284.694L161.645 284.869L165.224 288.1L165.66 288.973L165.835 289.409L166.359 290.282L166.708 290.632L167.057 290.894L168.366 291.767L168.628 292.116L168.89 292.465L169.152 292.902L169.675 293.077H170.374L171.596 292.815L172.468 292.727L173.254 292.465L173.952 291.941L176.047 288.711L178.665 286.179L179.102 285.655L180.062 283.821L180.411 283.384L180.76 283.21L181.371 283.384L181.808 283.646L182.069 283.996L182.331 284.432L182.506 284.869L182.68 285.393L182.768 285.917L182.855 287.052V287.663L182.768 288.187L182.593 288.798L181.458 291.243L181.371 291.767V292.378V292.902L181.808 294.998L181.895 295.521V297.355L181.982 297.792L182.244 298.228L182.593 298.577L183.03 298.839L183.553 299.014L184.077 299.189H185.212L187.917 298.839L190.361 298.927L190.972 298.839L191.67 298.577L192.194 298.316L192.543 297.966L193.591 296.307L194.202 295.434L194.638 295.085L194.987 294.823L195.424 294.648L195.947 294.561L196.471 294.648L196.995 294.736L197.431 294.91H197.868L198.042 294.474L198.129 288.361L197.955 287.314L197.78 286.79L197.606 286.441L197.257 286.091L196.82 285.829L196.384 285.742L195.86 285.829L195.511 286.091L195.249 286.441L194.9 286.79L194.202 288.274L193.94 288.623L193.591 288.973L193.154 289.235L192.718 289.409H192.107L191.583 289.322L191.06 289.147L190.71 288.885L190.361 288.536L190.187 288.012V287.488L190.274 286.877L190.536 285.829L192.892 280.852L193.503 279.717L194.202 279.019L195.685 278.058L198.217 277.01L199.002 276.486L199.7 275.526L202.668 270.287L203.977 267.231L204.326 266.532L204.676 266.096L206.858 264.786L217.07 268.366L221.347 271.248L222.394 271.771L223.267 272.033L230.162 272.121L249.801 270.724L252.07 272.295L252.157 272.383L260.013 277.884L262.02 278.844L267.432 280.416L277.469 281.9L328.355 281.725L333.068 285.305L334.465 286.79L336.298 289.584Z" fill="white" stroke="#D9D9D9" stroke-width="2" stroke-linecap="round" stroke-linejoin="round"/>
<path d="M99.5876 567.511L97.3182 567.162L90.0738 563.495L87.368 565.241L86.757 563.844L89.2882 561.137L86.4952 559.74L84.575 560.002L83.7021 557.383L88.2408 554.85L91.8194 554.676L98.4529 552.755L101.77 553.017L103.69 555.636L103.603 557.208L103.864 559.827L102.73 562.971L100.024 565.765L99.5876 567.511Z" fill="white" stroke="#D9D9D9" stroke-width="2" stroke-linecap="round" stroke-linejoin="round"/>
</svg>
